<?xml version="1.0" encoding="UTF-8"?><svg xmlns="http://www.w3.org/2000/svg" xmlns:xlink="http://www.w3.org/1999/xlink" viewBox="0 0 500 500"><defs><clipPath id="clippath"><path d="m268.85,184.21l12.9-13.05-13.56-27.3c-4.34-8.71-12.47-14.86-21.96-16.69-.59-.11-1.18-.21-1.78-.29l-2.4-.32h-19.26l-2.72-.73-3.8,1.74-7.83,3.6c-12.64,5.81-20.1,19.09-18.49,32.91l3.67,31.5,13.53-7.93-1.8,49.21c-.08,2.16,1.81,3.86,3.95,3.55l62.74-9.23c1.7-.25,2.87-1.81,2.64-3.5l-5.84-43.47Z" fill="none"/></clipPath></defs><g fill="none" isolation="isolate"><g id="OBJECTS"><path d="m341.25,167.63h-.72c.25-.07.49-.06.72,0Z" fill="#364380"/><path d="m340.53,167.63s-.03,0-.05.01h0s.05-.01.05-.01Z" fill="#364380"/><path d="m356.55,436.55c0,7.49-47.7,13.55-106.55,13.55s-106.55-6.07-106.55-13.55,47.7-13.55,106.55-13.55,106.55,6.07,106.55,13.55Z" fill="#e0e0e0"/><path d="m295.08,139.25l-12.14,45.73c-1.94,7.29-9.53,11.52-16.75,9.32l-8.19-2.49,24.72-58.15,12.36,5.6Z" fill="#ffbe9d"/><path d="m287.66,126.57c-.98-1.22-8.69,2.88-10.55,3.32-1.86.44-.2,5.07,3.22,4.61,3.42-.46,4.49-4.06,4.49-4.06l2.83-3.87Z" fill="#d683a7"/><path d="m281.98,116.74l-.23,29.91,3.22-.68v-29.21c0-.65-.42-1.22-1.04-1.42h0c-.96-.31-1.95.4-1.95,1.41Z" fill="#2a3551"/><path d="m286.59,127.08s-9.87,9.89-7.97,12.75c1.9,2.86,7.99-2.34,9.16-3.96-.15,3.3,4.07,6.4,6.59,6.01,3.81-.59,5.35-4.47,4.18-6.23-1.17-1.76-8.28-5.86-8.28-5.86,0,0-1.8-5.35-3.68-2.71Z" fill="#ffbe9d"/><polyline points="190.26 402.48 186.75 420.65 192.02 429.74 204.77 424.76 209.9 407.03" fill="#ffbe9d"/><path d="m159.52,433.39l27.81-16.11,5.28,7.47h12.16l1.32,11.28h-45.85c-1.45,0-1.97-1.92-.71-2.65Z" fill="#1f2251"/><polyline points="309.93 402.48 313.45 420.65 308.17 429.74 295.43 424.76 290.3 407.03" fill="#ffbe9d"/><path d="m340.67,433.39l-27.81-16.11-5.27,7.47h-12.16l-1.32,11.28h45.85c1.45,0,1.97-1.92.71-2.65Z" fill="#1f2251"/><polygon points="312.22 396.04 285.95 401.79 245.83 267.49 213.82 399.48 187.78 395.65 204.5 255.32 207.07 233.71 246.02 230.73 272.18 228.74 272.66 230.73 272.93 231.89 312.22 396.04" fill="#647bf4"/><polygon points="272.93 231.89 204.5 255.32 207.07 233.71 246.02 230.73 272.66 230.73 272.93 231.89" fill="#4257b2"/><path d="m274.69,227.68c.23,1.69-.94,3.25-2.64,3.5l-62.74,9.23c-2.13.31-4.03-1.39-3.95-3.55l1.8-49.21,1.32-35.83,9.58-20.92,1.99-4.33h22l2.4.32c.6.08,1.19.17,1.78.29,9.49,1.82,17.62,7.98,21.96,16.69l13.56,27.3-12.9,13.05,5.84,43.47Z" fill="#ffbd29"/><path d="m216.52,146.32c-.4.99-.57,2.04-.49,3.1l2.41,31.62-2.02,1.18-9.25,5.43-11.59,6.8-1.94,1.14-3.67-31.5c-1.61-13.82,5.85-27.1,18.49-32.91l7.83-3.6,3.8-1.74,2.72.73,1.61.44-3.11,7.61-4.77,11.71Z" fill="#ffbd29"/><g clip-path="url(#clippath)" fill="none"><path d="m195.29,226.94c0,1.25-1.02,2.27-2.27,2.27s-2.27-1.02-2.27-2.27,1.02-2.27,2.27-2.27,2.27,1.02,2.27,2.27Z" fill="#fff" mix-blend-mode="overlay" opacity=".25"/><path d="m208.74,226.94c0,1.25-1.02,2.27-2.27,2.27s-2.27-1.02-2.27-2.27,1.02-2.27,2.27-2.27,2.27,1.02,2.27,2.27Z" fill="#fff" mix-blend-mode="overlay" opacity=".25"/><path d="m222.18,226.94c0,1.25-1.02,2.27-2.27,2.27s-2.27-1.02-2.27-2.27,1.02-2.27,2.27-2.27,2.27,1.02,2.27,2.27Z" fill="#fff" mix-blend-mode="overlay" opacity=".25"/><path d="m235.63,226.94c0,1.25-1.02,2.27-2.27,2.27s-2.27-1.02-2.27-2.27,1.02-2.27,2.27-2.27,2.27,1.02,2.27,2.27Z" fill="#fff" mix-blend-mode="overlay" opacity=".25"/><path d="m249.08,226.94c0,1.25-1.02,2.27-2.27,2.27s-2.27-1.02-2.27-2.27,1.02-2.27,2.27-2.27,2.27,1.02,2.27,2.27Z" fill="#fff" mix-blend-mode="overlay" opacity=".25"/><path d="m262.52,226.94c0,1.25-1.02,2.27-2.27,2.27s-2.27-1.02-2.27-2.27,1.02-2.27,2.27-2.27,2.27,1.02,2.27,2.27Z" fill="#fff" mix-blend-mode="overlay" opacity=".25"/><path d="m275.97,226.94c0,1.25-1.02,2.27-2.27,2.27s-2.27-1.02-2.27-2.27,1.02-2.27,2.27-2.27,2.27,1.02,2.27,2.27Z" fill="#fff" mix-blend-mode="overlay" opacity=".25"/><path d="m289.42,226.94c0,1.25-1.02,2.27-2.27,2.27s-2.27-1.02-2.27-2.27,1.02-2.27,2.27-2.27,2.27,1.02,2.27,2.27Z" fill="#fff" mix-blend-mode="overlay" opacity=".25"/><path d="m195.29,214.39c0,1.25-1.02,2.27-2.27,2.27s-2.27-1.02-2.27-2.27,1.02-2.27,2.27-2.27,2.27,1.02,2.27,2.27Z" fill="#fff" mix-blend-mode="overlay" opacity=".25"/><path d="m208.74,214.39c0,1.25-1.02,2.27-2.27,2.27s-2.27-1.02-2.27-2.27,1.02-2.27,2.27-2.27,2.27,1.02,2.27,2.27Z" fill="#fff" mix-blend-mode="overlay" opacity=".25"/><path d="m222.18,214.39c0,1.25-1.02,2.27-2.27,2.27s-2.27-1.02-2.27-2.27,1.02-2.27,2.27-2.27,2.27,1.02,2.27,2.27Z" fill="#fff" mix-blend-mode="overlay" opacity=".25"/><path d="m235.63,214.39c0,1.25-1.02,2.27-2.27,2.27s-2.27-1.02-2.27-2.27,1.02-2.27,2.27-2.27,2.27,1.02,2.27,2.27Z" fill="#fff" mix-blend-mode="overlay" opacity=".25"/><path d="m249.08,214.39c0,1.25-1.02,2.27-2.27,2.27s-2.27-1.02-2.27-2.27,1.02-2.27,2.27-2.27,2.27,1.02,2.27,2.27Z" fill="#fff" mix-blend-mode="overlay" opacity=".25"/><path d="m262.52,214.39c0,1.25-1.02,2.27-2.27,2.27s-2.27-1.02-2.27-2.27,1.02-2.27,2.27-2.27,2.27,1.02,2.27,2.27Z" fill="#fff" mix-blend-mode="overlay" opacity=".25"/><path d="m275.97,214.39c0,1.25-1.02,2.27-2.27,2.27s-2.27-1.02-2.27-2.27,1.02-2.27,2.27-2.27,2.27,1.02,2.27,2.27Z" fill="#fff" mix-blend-mode="overlay" opacity=".25"/><path d="m289.42,214.39c0,1.25-1.02,2.27-2.27,2.27s-2.27-1.02-2.27-2.27,1.02-2.27,2.27-2.27,2.27,1.02,2.27,2.27Z" fill="#fff" mix-blend-mode="overlay" opacity=".25"/><circle cx="193.02" cy="201.85" r="2.27" fill="#fff" mix-blend-mode="overlay" opacity=".25"/><path d="m208.74,201.85c0,1.25-1.02,2.27-2.27,2.27s-2.27-1.02-2.27-2.27,1.02-2.27,2.27-2.27,2.27,1.02,2.27,2.27Z" fill="#fff" mix-blend-mode="overlay" opacity=".25"/><path d="m222.18,201.85c0,1.25-1.02,2.27-2.27,2.27s-2.27-1.02-2.27-2.27,1.02-2.27,2.27-2.27,2.27,1.02,2.27,2.27Z" fill="#fff" mix-blend-mode="overlay" opacity=".25"/><path d="m235.63,201.85c0,1.25-1.02,2.27-2.27,2.27s-2.27-1.02-2.27-2.27,1.02-2.27,2.27-2.27,2.27,1.02,2.27,2.27Z" fill="#fff" mix-blend-mode="overlay" opacity=".25"/><path d="m249.08,201.85c0,1.25-1.02,2.27-2.27,2.27s-2.27-1.02-2.27-2.27,1.02-2.27,2.27-2.27,2.27,1.02,2.27,2.27Z" fill="#fff" mix-blend-mode="overlay" opacity=".25"/><circle cx="260.25" cy="201.85" r="2.27" fill="#fff" mix-blend-mode="overlay" opacity=".25"/><circle cx="273.7" cy="201.85" r="2.27" fill="#fff" mix-blend-mode="overlay" opacity=".25"/><circle cx="287.15" cy="201.85" r="2.27" fill="#fff" mix-blend-mode="overlay" opacity=".25"/><circle cx="193.02" cy="189.3" r="2.27" fill="#fff" mix-blend-mode="overlay" opacity=".25"/><path d="m208.74,189.3c0,1.25-1.02,2.27-2.27,2.27s-2.27-1.02-2.27-2.27,1.02-2.27,2.27-2.27,2.27,1.02,2.27,2.27Z" fill="#fff" mix-blend-mode="overlay" opacity=".25"/><path d="m222.18,189.3c0,1.25-1.02,2.27-2.27,2.27s-2.27-1.02-2.27-2.27,1.02-2.27,2.27-2.27,2.27,1.02,2.27,2.27Z" fill="#fff" mix-blend-mode="overlay" opacity=".25"/><path d="m235.63,189.3c0,1.25-1.02,2.27-2.27,2.27s-2.27-1.02-2.27-2.27,1.02-2.27,2.27-2.27,2.27,1.02,2.27,2.27Z" fill="#fff" mix-blend-mode="overlay" opacity=".25"/><path d="m249.08,189.3c0,1.25-1.02,2.27-2.27,2.27s-2.27-1.02-2.27-2.27,1.02-2.27,2.27-2.27,2.27,1.02,2.27,2.27Z" fill="#fff" mix-blend-mode="overlay" opacity=".25"/><circle cx="260.25" cy="189.3" r="2.27" fill="#fff" mix-blend-mode="overlay" opacity=".25"/><circle cx="273.7" cy="189.3" r="2.27" fill="#fff" mix-blend-mode="overlay" opacity=".25"/><circle cx="287.15" cy="189.3" r="2.27" fill="#fff" mix-blend-mode="overlay" opacity=".25"/><path d="m195.29,176.75c0,1.25-1.02,2.27-2.27,2.27s-2.27-1.02-2.27-2.27,1.02-2.27,2.27-2.27,2.27,1.02,2.27,2.27Z" fill="#fff" mix-blend-mode="overlay" opacity=".25"/><path d="m208.74,176.75c0,1.25-1.02,2.27-2.27,2.27s-2.27-1.02-2.27-2.27,1.02-2.27,2.27-2.27,2.27,1.02,2.27,2.27Z" fill="#fff" mix-blend-mode="overlay" opacity=".25"/><path d="m222.18,176.75c0,1.25-1.02,2.27-2.27,2.27s-2.27-1.02-2.27-2.27,1.02-2.27,2.27-2.27,2.27,1.02,2.27,2.27Z" fill="#fff" mix-blend-mode="overlay" opacity=".25"/><path d="m235.63,176.75c0,1.25-1.02,2.27-2.27,2.27s-2.27-1.02-2.27-2.27,1.02-2.27,2.27-2.27,2.27,1.02,2.27,2.27Z" fill="#fff" mix-blend-mode="overlay" opacity=".25"/><path d="m249.08,176.75c0,1.25-1.02,2.27-2.27,2.27s-2.27-1.02-2.27-2.27,1.02-2.27,2.27-2.27,2.27,1.02,2.27,2.27Z" fill="#fff" mix-blend-mode="overlay" opacity=".25"/><path d="m262.52,176.75c0,1.25-1.02,2.27-2.27,2.27s-2.27-1.02-2.27-2.27,1.02-2.27,2.27-2.27,2.27,1.02,2.27,2.27Z" fill="#fff" mix-blend-mode="overlay" opacity=".25"/><path d="m275.97,176.75c0,1.25-1.02,2.27-2.27,2.27s-2.27-1.02-2.27-2.27,1.02-2.27,2.27-2.27,2.27,1.02,2.27,2.27Z" fill="#fff" mix-blend-mode="overlay" opacity=".25"/><path d="m289.42,176.75c0,1.25-1.02,2.27-2.27,2.27s-2.27-1.02-2.27-2.27,1.02-2.27,2.27-2.27,2.27,1.02,2.27,2.27Z" fill="#fff" mix-blend-mode="overlay" opacity=".25"/><path d="m195.29,164.21c0,1.25-1.02,2.27-2.27,2.27s-2.27-1.02-2.27-2.27,1.02-2.27,2.27-2.27,2.27,1.02,2.27,2.27Z" fill="#fff" mix-blend-mode="overlay" opacity=".25"/><path d="m208.74,164.21c0,1.25-1.02,2.27-2.27,2.27s-2.27-1.02-2.27-2.27,1.02-2.27,2.27-2.27,2.27,1.02,2.27,2.27Z" fill="#fff" mix-blend-mode="overlay" opacity=".25"/><path d="m222.18,164.21c0,1.25-1.02,2.27-2.27,2.27s-2.27-1.02-2.27-2.27,1.02-2.27,2.27-2.27,2.27,1.02,2.27,2.27Z" fill="#fff" mix-blend-mode="overlay" opacity=".25"/><path d="m235.63,164.21c0,1.25-1.02,2.27-2.27,2.27s-2.27-1.02-2.27-2.27,1.02-2.27,2.27-2.27,2.27,1.02,2.27,2.27Z" fill="#fff" mix-blend-mode="overlay" opacity=".25"/><path d="m249.08,164.21c0,1.25-1.02,2.27-2.27,2.27s-2.27-1.02-2.27-2.27,1.02-2.27,2.27-2.27,2.27,1.02,2.27,2.27Z" fill="#fff" mix-blend-mode="overlay" opacity=".25"/><path d="m262.52,164.21c0,1.25-1.02,2.27-2.27,2.27s-2.27-1.02-2.27-2.27,1.02-2.27,2.27-2.27,2.27,1.02,2.27,2.27Z" fill="#fff" mix-blend-mode="overlay" opacity=".25"/><path d="m275.97,164.21c0,1.25-1.02,2.27-2.27,2.27s-2.27-1.02-2.27-2.27,1.02-2.27,2.27-2.27,2.27,1.02,2.27,2.27Z" fill="#fff" mix-blend-mode="overlay" opacity=".25"/><path d="m289.42,164.21c0,1.25-1.02,2.27-2.27,2.27s-2.27-1.02-2.27-2.27,1.02-2.27,2.27-2.27,2.27,1.02,2.27,2.27Z" fill="#fff" mix-blend-mode="overlay" opacity=".25"/><circle cx="193.02" cy="151.66" r="2.27" fill="#fff" mix-blend-mode="overlay" opacity=".25"/><path d="m208.74,151.66c0,1.25-1.02,2.27-2.27,2.27s-2.27-1.02-2.27-2.27,1.02-2.27,2.27-2.27,2.27,1.02,2.27,2.27Z" fill="#fff" mix-blend-mode="overlay" opacity=".25"/><path d="m222.18,151.66c0,1.25-1.02,2.27-2.27,2.27s-2.27-1.02-2.27-2.27,1.02-2.27,2.27-2.27,2.27,1.02,2.27,2.27Z" fill="#fff" mix-blend-mode="overlay" opacity=".25"/><path d="m235.63,151.66c0,1.25-1.02,2.27-2.27,2.27s-2.27-1.02-2.27-2.27,1.02-2.27,2.27-2.27,2.27,1.02,2.27,2.27Z" fill="#fff" mix-blend-mode="overlay" opacity=".25"/><path d="m249.08,151.66c0,1.25-1.02,2.27-2.27,2.27s-2.27-1.02-2.27-2.27,1.02-2.27,2.27-2.27,2.27,1.02,2.27,2.27Z" fill="#fff" mix-blend-mode="overlay" opacity=".25"/><circle cx="260.25" cy="151.66" r="2.27" fill="#fff" mix-blend-mode="overlay" opacity=".25"/><circle cx="273.7" cy="151.66" r="2.27" fill="#fff" mix-blend-mode="overlay" opacity=".25"/><circle cx="287.15" cy="151.66" r="2.27" fill="#fff" mix-blend-mode="overlay" opacity=".25"/><circle cx="193.02" cy="139.11" r="2.27" fill="#fff" mix-blend-mode="overlay" opacity=".25"/><path d="m208.74,139.11c0,1.25-1.02,2.27-2.27,2.27s-2.27-1.02-2.27-2.27,1.02-2.27,2.27-2.27,2.27,1.02,2.27,2.27Z" fill="#fff" mix-blend-mode="overlay" opacity=".25"/><path d="m222.18,139.11c0,1.25-1.02,2.27-2.27,2.27s-2.27-1.02-2.27-2.27,1.02-2.27,2.27-2.27,2.27,1.02,2.27,2.27Z" fill="#fff" mix-blend-mode="overlay" opacity=".25"/><path d="m235.63,139.11c0,1.25-1.02,2.27-2.27,2.27s-2.27-1.02-2.27-2.27,1.02-2.27,2.27-2.27,2.27,1.02,2.27,2.27Z" fill="#fff" mix-blend-mode="overlay" opacity=".25"/><path d="m249.08,139.11c0,1.25-1.02,2.27-2.27,2.27s-2.27-1.02-2.27-2.27,1.02-2.27,2.27-2.27,2.27,1.02,2.27,2.27Z" fill="#fff" mix-blend-mode="overlay" opacity=".25"/><circle cx="260.25" cy="139.11" r="2.27" fill="#fff" mix-blend-mode="overlay" opacity=".25"/><circle cx="273.7" cy="139.11" r="2.27" fill="#fff" mix-blend-mode="overlay" opacity=".25"/><circle cx="287.15" cy="139.11" r="2.27" fill="#fff" mix-blend-mode="overlay" opacity=".25"/><path d="m195.29,126.57c0,1.25-1.02,2.27-2.27,2.27s-2.27-1.02-2.27-2.27,1.02-2.27,2.27-2.27,2.27,1.02,2.27,2.27Z" fill="#fff" mix-blend-mode="overlay" opacity=".25"/><path d="m208.74,126.57c0,1.25-1.02,2.27-2.27,2.27s-2.27-1.02-2.27-2.27,1.02-2.27,2.27-2.27,2.27,1.02,2.27,2.27Z" fill="#fff" mix-blend-mode="overlay" opacity=".25"/><path d="m222.18,126.57c0,1.25-1.02,2.27-2.27,2.27s-2.27-1.02-2.27-2.27,1.02-2.27,2.27-2.27,2.27,1.02,2.27,2.27Z" fill="#fff" mix-blend-mode="overlay" opacity=".25"/><path d="m235.63,126.57c0,1.25-1.02,2.27-2.27,2.27s-2.27-1.02-2.27-2.27,1.02-2.27,2.27-2.27,2.27,1.02,2.27,2.27Z" fill="#fff" mix-blend-mode="overlay" opacity=".25"/><path d="m249.08,126.57c0,1.25-1.02,2.27-2.27,2.27s-2.27-1.02-2.27-2.27,1.02-2.27,2.27-2.27,2.27,1.02,2.27,2.27Z" fill="#fff" mix-blend-mode="overlay" opacity=".25"/><path d="m262.52,126.57c0,1.25-1.02,2.27-2.27,2.27s-2.27-1.02-2.27-2.27,1.02-2.27,2.27-2.27,2.27,1.02,2.27,2.27Z" fill="#fff" mix-blend-mode="overlay" opacity=".25"/><path d="m275.97,126.57c0,1.25-1.02,2.27-2.27,2.27s-2.27-1.02-2.27-2.27,1.02-2.27,2.27-2.27,2.27,1.02,2.27,2.27Z" fill="#fff" mix-blend-mode="overlay" opacity=".25"/><path d="m289.42,126.57c0,1.25-1.02,2.27-2.27,2.27s-2.27-1.02-2.27-2.27,1.02-2.27,2.27-2.27,2.27,1.02,2.27,2.27Z" fill="#fff" mix-blend-mode="overlay" opacity=".25"/></g><path d="m250.2,177.57l13.4-29.57c.52-1.14,1.51-1.99,2.71-2.32l54.48-14.95c.92-.25,2.8,2.02,2.38,2.88l-19.83,36.8c-.64,1.29-1.74,2.3-3.09,2.81l-51.24,19.43,1.17-15.09Z" fill="#2a3551"/><path d="m251.17,179.75l13.4-29.57c.52-1.14,1.51-1.99,2.71-2.32l54.48-14.95c.92-.25,1.71.7,1.29,1.56l-18.73,38.12c-.64,1.29-1.74,2.3-3.09,2.81l-51.24,19.43,1.17-15.09Z" fill="#364380"/><path d="m264.41,186.71s1.1,2.57-4.32,7.55c-5.43,4.98-13.64,1.76-13.64,1.76l-21.77,16.52c-3.08,2.31-6.76,3.49-10.46,3.49-2.75,0-5.51-.64-8.05-1.96-4.66-2.42-7.98-6.82-9.03-11.96l-.15-.75-1.42-6.91,11.59-6.8,9.25-5.43.31,1.72,1.45,7.98,23.67-11.58s4.76-7.62,7.04-10.33c2.27-2.71,4.83-3.15,5.64-1.39.82,1.76-4.32,8.94-4.32,8.94,0,0,1.91-.15,7.62-2.13,5.72-1.97,9.45-6.07,10.98-4.83,1.54,1.25.67,4.83-1.39,7.62.52,4.91-3.01,8.49-3.01,8.49Z" fill="#ffbe9d"/><polygon points="216.73 183.95 196.99 201.36 195.57 194.45 207.16 187.66 216.42 182.23 216.73 183.95" fill="#d683a7"/><path d="m246.24,127.18c-.91,5.13-3.8,10.32-11.57,11.16-6.14.68-10.42-1.18-13.37-3.72-1.33-1.16-2.4-2.46-3.23-3.72-.78-1.17-1.37-2.32-1.79-3.32l3.8-1.74,2.72.73h19.26l2.4.32c.6.08,1.19.17,1.78.29Z" fill="#fff"/><path d="m235.25,134.84c-10.78,1.21-15.17-9.01-15.17-9.01l2.2-.95s.37-8.57-.44-13.56l3.08.79,15.16,3.9c-1.4,3.28-1.03,7.87-.86,9.34.03.3.06.47.06.47l2.78.73s.45,7.47-6.81,8.28Z" fill="#ffbe9d"/><path d="m239.22,125.36c-6.07.14-13.79-1.97-16.15-9.91-.54-1.8.26-2.83,1.85-3.34l15.16,3.9c-1.4,3.28-1.03,7.87-.86,9.34Z" fill="#d683a7"/><path d="m219.28,105.91l-5.51-6.78c-2.85-3.5-2.56-8.61.68-11.76h0c-2.98-7.14,1.23-15.23,8.78-16.89l5.63-1.24c1-.22,1.95-.65,2.78-1.25l5.41-3.95c1.31-.96,3.06-1.02,4.44-.17h0c1.77,1.1,2.39,3.39,1.42,5.23l-1.66,3.14c-.2.37.23.77.58.54l9.78-6.11c1.26-.79,2.9-.56,3.9.55h0c.96,1.07,1.05,2.66.22,3.83l-6.75,9.46c-.23.33.09.76.47.63l1.65-.59c1.69-.6,3.57.06,4.51,1.59h0c.9,1.46.71,3.34-.47,4.59-3.22,3.43-9.28,10.29-10.08,14.19-1.1,5.35-25.79,4.98-25.79,4.98Z" fill="#25292b"/><path d="m245.86,95.33c-.18,1.04-.36,2.63-.36,4.94,0,1.52.3,4.03.33,6.77.02,1.92-.08,3.96-.49,5.88-.96,4.45-3.62,8.24-10.31,8.24-13.7,0-15.09-13.56-15.09-13.56,0,0-.37,3.26-3.44,1.72-2.3-1.15-3.08-6.38-.48-7.62,1.53-.73,3.16.26,4.25,1.21.46.39,1.16.02,1.1-.57l-.55-6.39c3.74,1.14,17.15-2.67,22.42-7.87.09,1.4,1.06,3,1.88,4.11.67.91.94,2.04.75,3.16Z" fill="#ffbe9d"/><path d="m232.07,112.89l5.19.24s-.18,2.69-2.79,2.52c-2.61-.17-2.4-2.76-2.4-2.76Z" fill="#fff"/><path d="m215.76,104.26c1.54-.95,2.93.26,2.64,2.56" fill="none" stroke="#c85e8b" stroke-linecap="round" stroke-miterlimit="9" stroke-width=".57"/><path d="m231.3,109.9c0,1.7-1.38,3.08-3.08,3.08s-3.08-1.38-3.08-3.08,1.38-3.08,3.08-3.08,3.08,1.38,3.08,3.08Z" fill="#eab7c0"/><path d="m245.83,107.03c.02,1.92-.08,3.96-.49,5.88-.2.05-.4.07-.61.07-1.7,0-3.08-1.38-3.08-3.08s1.38-3.08,3.08-3.08c.39,0,.76.07,1.1.21Z" fill="#eab7c0"/><line x1="218.18" y1="191.92" x2="209.46" y2="196.32" fill="none" stroke="#c85e8b" stroke-linecap="round" stroke-miterlimit="9" stroke-width=".57"/><path d="m267.41,178.22c-1.9,3.81-12.41,5.29-12.41,5.29" fill="none" stroke="#c85e8b" stroke-linecap="round" stroke-miterlimit="9" stroke-width=".57"/><path d="m264.41,186.72c-4.25,4.54-11.28,3.44-11.28,3.44" fill="none" stroke="#c85e8b" stroke-linecap="round" stroke-miterlimit="9" stroke-width=".57"/><line x1="216.41" y1="182.23" x2="212.78" y2="155.84" fill="none" stroke="#1f2251" stroke-linecap="round" stroke-linejoin="round" stroke-width=".57"/><line x1="261.21" y1="203.2" x2="234.66" y2="225.58" fill="none" stroke="#1f2251" stroke-linecap="round" stroke-linejoin="round" stroke-width=".57"/><rect x="184.49" y="396.73" width="31.13" height="10.11" rx="2.81" ry="2.81" transform="translate(53.09 -22.31) rotate(7.36)" fill="#647bf4"/><line x1="187.82" y1="395.16" x2="213.58" y2="398.48" fill="none" stroke="#1f2251" stroke-linecap="round" stroke-linejoin="round" stroke-width=".57"/><rect x="284.91" y="396.82" width="31.13" height="10.11" rx="2.81" ry="2.81" transform="translate(-100.57 100.3) rotate(-16.27)" fill="#647bf4"/><line x1="286.61" y1="400.7" x2="311.54" y2="393.43" fill="none" stroke="#1f2251" stroke-linecap="round" stroke-linejoin="round" stroke-width=".57"/><path d="m267.62,152.3c1.45-1.07,3.29-1.05,4.1.05.81,1.1.29,2.86-1.16,3.94-1.45,1.07-3.29,1.05-4.1-.05-.81-1.1-.29-2.86,1.16-3.94Z" fill="#fff" mix-blend-mode="overlay" opacity=".25"/><path d="m268.33,153.27c.75-.55,1.69-.54,2.11.02.42.56.15,1.47-.6,2.02-.75.55-1.69.54-2.11-.02-.42-.56-.15-1.47.6-2.02Z" fill="#fff" mix-blend-mode="overlay" opacity=".25"/><line x1="247.93" y1="255.3" x2="241.01" y2="287.38" fill="none" stroke="#1f2251" stroke-linecap="round" stroke-linejoin="round" stroke-width=".57"/><path d="m236.18,110.25l1.22-.72c.82-.48,1.15-1.5.78-2.38l-2-4.62" fill="none" stroke="#c85e8b" stroke-linecap="round" stroke-miterlimit="9" stroke-width=".57"/><path d="m226.63,101.04s1.81-2.74,5.44-1.53" fill="none" stroke="#1f2251" stroke-linecap="round" stroke-linejoin="round" stroke-width=".86"/><path d="m244.11,99.66s-2.17-2.39-5.65-.2" fill="none" stroke="#1f2251" stroke-linecap="round" stroke-linejoin="round" stroke-width=".86"/><path d="m231.77,104.71c0,.61-.39,1.1-.87,1.1s-.87-.49-.87-1.1.39-1.1.87-1.1.87.49.87,1.1Z"/><path d="m242.25,104.09c0,.61-.39,1.1-.87,1.1s-.87-.49-.87-1.1.39-1.1.87-1.1.87.49.87,1.1Z"/></g></g></svg>