<?xml version="1.0" encoding="UTF-8"?><svg id="OBJECTS" xmlns="http://www.w3.org/2000/svg" viewBox="0 0 500 500"><path d="m323.78,438.94c0,4.22-26.89,7.64-60.05,7.64s-60.05-3.42-60.05-7.64,26.89-7.64,60.05-7.64,60.05,3.42,60.05,7.64Z" fill="#e0e0e0"/><path d="m191.85,138.01c3.06-1.85,6.31-3.25,9.66-4.2l1.99-9.57,16.16-.28,2.33,9.49c3.39.83,6.69,2.12,9.81,3.86l8.17-5.35,11.63,11.23-5.06,8.35c1.85,3.06,3.25,6.31,4.2,9.67l9.56,1.99.28,16.16-9.49,2.33c-.83,3.39-2.12,6.69-3.86,9.81l5.35,8.17-11.23,11.63-8.35-5.06c-3.06,1.85-6.31,3.25-9.67,4.2l-1.99,9.57-16.16.28-2.33-9.49c-3.39-.83-6.69-2.12-9.81-3.86l-8.17,5.35-11.63-11.23,5.06-8.35c-1.85-3.06-3.25-6.31-4.2-9.67l-9.57-1.99-.28-16.16,9.49-2.33c.83-3.39,2.12-6.69,3.86-9.81l-5.35-8.17,11.23-11.63,8.35,5.06h0Zm8.62,21.53c-6.65,6.89-6.46,17.87.43,24.52,6.89,6.65,17.87,6.46,24.52-.43,6.65-6.89,6.46-17.87-.43-24.52-6.89-6.65-17.87-6.46-24.52.43Z" fill="#f5f5f5"/><path d="m344.28,123.6c-2.85-7.46-7.16-14.2-12.78-19.93-9.67-9.87-20.68-18.61-33.14-24.74-12.46-6.13-32.79-11.57-47.59-11.49-7.64-.29-11.5.18-18.46,2.87-4.34,1.68-7.99,5.55-8.29,10.14-.28,4.25,2.34,9.47,5.85,11.94,15.07,10.62,26.49,11.18,41.1,15.86,14.62,4.68,29.66,11.61,37.54,24.61,4.28,7.06,6.72,16.09,14.14,19.83,7.19,3.63,16.69.1,21.1-6.57s3.36-15.07.52-22.52Z" fill="#f5f5f5"/><path d="m143.89,256.96s-.37.21-1.09.61c-.72.4-1.82.96-3.2,1.78-2.79,1.59-6.87,4.05-11.79,7.67-4.91,3.62-10.7,8.41-16.63,14.75-2.97,3.16-5.97,6.71-8.91,10.66-2.96,3.93-5.73,8.35-8.09,13.27-1.13,2.48-2.19,5.07-3.01,7.8-.8,2.74-1.4,5.6-1.67,8.56-.25,2.96-.11,6.01.48,9.03.26,1.52.75,3,1.24,4.49.56,1.46,1.21,2.91,2.01,4.29,3.17,5.56,8.18,10.23,14.09,13.6,5.92,3.4,12.76,5.44,19.86,6.63,3.56.59,7.19.99,10.88,1.27,1.84.16,3.7.22,5.57.3,1.87.08,3.75.16,5.63.24,1.89.12,3.79.08,5.7.08,1.91,0,3.83,0,5.76-.01,1.93.04,3.86-.12,5.81-.2,1.95-.09,3.9-.18,5.86-.27,15.69-.95,31.83-3.45,48.07-7.21,32.52-7.56,62.24-19.33,88.41-31.54,13.11-6.06,25.37-12.4,35.7-20.05,5.17-3.81,9.79-7.99,13.74-12.43.49-.56.98-1.12,1.47-1.67.48-.56.91-1.15,1.37-1.72.45-.57.9-1.14,1.34-1.71.41-.59.82-1.18,1.23-1.77,1.69-2.31,3.06-4.74,4.19-7.22,2.22-4.96,3.49-10.13,3.28-15.03-.2-4.88-2.07-9.43-5.19-12.43-3.09-3.04-7.01-4.57-10.62-5.25-3.65-.67-7.09-.51-10.09,0-3.01.5-5.61,1.3-7.83,2.07-2.22.77-4.06,1.54-5.55,2.16-1.47.63-2.6,1.12-3.36,1.45-.76.33-1.15.49-1.15.49,0,0,.38-.19,1.13-.53.75-.34,1.87-.85,3.35-1.49,1.48-.64,3.32-1.41,5.54-2.2,2.22-.78,4.83-1.6,7.85-2.12,3.01-.53,6.48-.71,10.16-.05,3.65.67,7.62,2.2,10.77,5.29,3.19,3.04,5.1,7.67,5.31,12.61.22,4.97-1.05,10.18-3.28,15.19-1.13,2.5-2.51,4.97-4.2,7.29-.41.59-.82,1.18-1.23,1.78-.45.57-.89,1.15-1.35,1.72-.46.57-.89,1.17-1.37,1.73-.49.56-.98,1.12-1.47,1.68-3.97,4.48-8.61,8.68-13.78,12.51-10.36,7.69-22.64,14.06-35.75,20.13-26.18,12.25-55.92,24.04-88.49,31.61-32.49,7.6-64.76,9.73-93.47,5.77-7.13-1.2-14.02-3.26-20-6.7-5.97-3.41-11.02-8.13-14.23-13.77-.81-1.4-1.47-2.87-2.04-4.35-.5-1.51-.99-3.01-1.25-4.55-.59-3.06-.73-6.15-.47-9.14.28-2.99.89-5.87,1.7-8.63.84-2.75,1.9-5.35,3.05-7.84,2.38-4.94,5.18-9.37,8.15-13.31,2.95-3.95,5.97-7.5,8.96-10.66,5.97-6.33,11.78-11.11,16.72-14.72,4.94-3.61,9.04-6.04,11.85-7.61,2.81-1.57,4.34-2.3,4.34-2.3Z" fill="#e0e0e0"/><path d="m123.21,140.26l.68,1.12c.76,1.26,1.86,2.28,3.18,2.93l1.18.58-1.12.68c-1.26.76-2.28,1.86-2.93,3.18l-.58,1.18-.68-1.12c-.76-1.26-1.86-2.28-3.18-2.93l-1.18-.58,1.12-.68c1.26-.76,2.28-1.86,2.93-3.18l.58-1.18Z" fill="#ff725e"/><path d="m366.5,263.7l.68,1.12c.76,1.26,1.86,2.28,3.18,2.93l1.18.58-1.12.68c-1.26.76-2.28,1.86-2.93,3.18l-.58,1.18-.68-1.12c-.76-1.26-1.86-2.28-3.18-2.93l-1.18-.58,1.12-.68c1.26-.76,2.28-1.86,2.93-3.18l.58-1.18Z" fill="#ff725e"/><path d="m234.35,31.9l.68,1.12c.76,1.26,1.86,2.28,3.18,2.93l1.18.58-1.12.68c-1.26.76-2.28,1.86-2.93,3.18l-.58,1.18-.68-1.12c-.76-1.26-1.86-2.28-3.18-2.93l-1.18-.58,1.12-.68c1.26-.76,2.28-1.86,2.93-3.18l.58-1.18Z" fill="#ff725e"/><path d="m392.55,137.81l.68,1.12c.76,1.26,1.86,2.28,3.18,2.93l1.18.58-1.12.68c-1.26.76-2.28,1.86-2.93,3.18l-.58,1.18-.68-1.12c-.76-1.26-1.86-2.28-3.18-2.93l-1.18-.58,1.12-.68c1.26-.76,2.28-1.86,2.93-3.18l.58-1.18Z" fill="#ff725e"/><path d="m148.84,183.57l.49.82c.55.92,1.36,1.66,2.32,2.14l.86.42-.82.49c-.92.55-1.66,1.36-2.14,2.32l-.42.86-.49-.82c-.55-.92-1.36-1.66-2.32-2.14l-.86-.42.82-.49c.92-.55,1.66-1.36,2.14-2.32l.42-.86Z" fill="#ff725e"/><path d="m171.26,288.61l.49.82c.55.92,1.36,1.66,2.32,2.14l.86.42-.82.49c-.92.55-1.66,1.36-2.14,2.32l-.42.86-.49-.82c-.55-.92-1.36-1.66-2.32-2.14l-.86-.42.82-.49c.92-.55,1.66-1.36,2.14-2.32l.42-.86Z" fill="#ff725e"/><path d="m385.2,106.01l.49.82c.55.92,1.36,1.66,2.32,2.14l.86.42-.82.49c-.92.55-1.66,1.36-2.14,2.32l-.42.86-.49-.82c-.55-.92-1.36-1.66-2.32-2.14l-.86-.42.82-.49c.92-.55,1.66-1.36,2.14-2.32l.42-.86Z" fill="#ff725e"/><path d="m104.95,161.42l.49.82c.55.92,1.36,1.66,2.32,2.14l.86.42-.82.49c-.92.55-1.66,1.36-2.14,2.32l-.42.86-.49-.82c-.55-.92-1.36-1.66-2.32-2.14l-.86-.42.82-.49c.92-.55,1.66-1.36,2.14-2.32l.42-.86Z" fill="#ff725e"/><path d="m408.9,111.05l.28.47c.32.53.78.95,1.33,1.22l.49.24-.47.28c-.53.32-.95.78-1.22,1.33l-.24.49-.28-.47c-.32-.53-.78-.95-1.33-1.22l-.49-.24.47-.28c.53-.32.95-.78,1.22-1.33l.24-.49Z" fill="#ff725e"/><path d="m391.37,245.98l.28.47c.32.53.78.95,1.33,1.22l.49.24-.47.28c-.53.32-.95.78-1.22,1.33l-.24.49-.28-.47c-.32-.53-.78-.95-1.33-1.22l-.49-.24.47-.28c.53-.32.95-.78,1.22-1.33l.24-.49Z" fill="#ff725e"/><path d="m270.17,21.36l.28.47c.32.53.78.95,1.33,1.22l.49.24-.47.28c-.53.32-.95.78-1.22,1.33l-.24.49-.28-.47c-.32-.53-.78-.95-1.33-1.22l-.49-.24.47-.28c.53-.32.95-.78,1.22-1.33l.24-.49Z" fill="#ff725e"/><path d="m216.49,45.29l.28.47c.32.53.78.95,1.33,1.22l.49.24-.47.28c-.53.32-.95.78-1.22,1.33l-.24.49-.28-.47c-.32-.53-.78-.95-1.33-1.22l-.49-.24.47-.28c.53-.32.95-.78,1.22-1.33l.24-.49Z" fill="#ff725e"/><path d="m177.26,300.93l.28.47c.32.53.78.95,1.33,1.22l.49.24-.47.28c-.53.32-.95.78-1.22,1.33l-.24.49-.28-.47c-.32-.53-.78-.95-1.33-1.22l-.49-.24.47-.28c.53-.32.95-.78,1.22-1.33l.24-.49Z" fill="#ff725e"/><path d="m315.17,370.12l-116.2-.27c-4.82-.01-8.71-3.4-8.7-7.57h0c0-4.17,3.92-7.54,8.74-7.53l116.2.27c4.82.01,8.71,3.4,8.7,7.57h0c-.01,4.17-3.92,7.54-8.74,7.53Z" fill="#455a64"/><path d="m315.17,351.79l-116.2-.27c-4.82-.01-8.71-3.4-8.7-7.57h0c0-4.17,3.92-7.54,8.74-7.53l116.2.27c4.82.01,8.71,3.4,8.7,7.57h0c-.01,4.17-3.92,7.54-8.74,7.53Z" fill="#455a64"/><path d="m310.5,372.86l-106.4-.25c-4.41-.01-7.99,3.56-8,7.97-.01,4.41,3.56,7.99,7.97,8l11.68.03,15.43,29.53c1.77,3.38,5.26,5.5,9.07,5.51l38.02.09c3.85,0,7.38-2.14,9.14-5.56l15.12-29.36,7.94.02c4.41.01,7.99-3.56,8-7.97.01-4.41-3.56-7.99-7.97-8Z" fill="#455a64"/><path d="m347.04,249.07s0,0,.01,0h0s-.29.44-.86,1.28c-.57.84-1.42,2.09-2.53,3.73-.56.82-1.18,1.74-1.88,2.75-.68,1.02-1.34,2.19-2.11,3.43-.75,1.25-1.57,2.59-2.44,4.03-.89,1.43-1.66,3.05-2.58,4.71-.45.84-.91,1.7-1.38,2.59-.24.44-.48.89-.72,1.35-.22.47-.44.94-.66,1.42-.9,1.92-1.84,3.93-2.83,6.03-.88,2.15-1.8,4.4-2.75,6.74-.87,2.37-1.74,4.86-2.63,7.44-1.61,5.21-3.21,10.85-4.35,16.97-1.13,6.11-2.01,12.7-1.89,19.64v.16s-.15,0-.15,0c-33.73.02-75.87.04-124.05.06h-.2s-.02-.2-.02-.2c-1.14-13.84-4.93-28.14-11.2-41.94-3.12-6.91-6.83-13.69-11.03-20.31-2.1-3.31-4.33-6.57-6.7-9.76-2.33-3.22-4.96-6.24-7.53-9.36l-.31-.38h.5l-.19.38c-11.16-14.33-19.49-31.89-23.14-51-.5-2.38-.81-4.8-1.18-7.22-.15-1.21-.27-2.43-.4-3.65l-.19-1.83-.12-1.84c-.07-1.23-.18-2.46-.21-3.69-.03-1.23-.05-2.47-.08-3.71-.05-1.24.04-2.48.05-3.72.04-1.24.05-2.49.11-3.73.57-9.94,2.32-19.93,5.34-29.63,8.71-27.75,27.49-51.24,50.7-65.73,5.79-3.65,11.83-6.78,18.02-9.37,6.19-2.61,12.58-4.57,18.98-6.06,12.82-3.01,25.86-3.7,38.37-2.58,6.25.62,12.4,1.62,18.34,3.13,5.93,1.54,11.67,3.45,17.17,5.74,5.47,2.35,10.7,5.03,15.66,8,4.91,3.04,9.57,6.32,13.9,9.85,8.61,7.13,16.02,15.11,21.97,23.61,6.04,8.44,10.64,17.36,14.07,26.22.92,2.19,1.58,4.45,2.35,6.64.72,2.2,1.28,4.43,1.92,6.6.49,2.21,1.04,4.37,1.47,6.53.19,1.08.38,2.16.57,3.23.19,1.07.4,2.13.51,3.19,1.19,8.48,1.44,16.59.99,24.12-.88,15.1-4.45,27.78-8.38,37.63-1.95,4.94-4.1,9.15-6.01,12.76-1.99,3.57-3.8,6.52-5.36,8.84-.79,1.15-1.48,2.17-2.08,3.05-.63.85-1.16,1.56-1.59,2.13-.84,1.11-1.21,1.61-1.31,1.74.09-.13.46-.63,1.26-1.74.42-.58.95-1.31,1.58-2.17.59-.88,1.28-1.9,2.06-3.06,1.54-2.33,3.34-5.28,5.31-8.86,1.9-3.61,4.03-7.82,5.97-12.76,3.9-9.84,7.43-22.51,8.28-37.57.44-7.52.16-15.6-1.03-24.06-.11-1.06-.32-2.12-.51-3.18-.19-1.07-.38-2.14-.58-3.22-.43-2.15-.98-4.31-1.47-6.51-.64-2.16-1.2-4.38-1.92-6.57-.77-2.18-1.43-4.43-2.35-6.62-3.43-8.83-8.02-17.72-14.06-26.13-5.95-8.46-13.34-16.41-21.92-23.51-4.32-3.52-8.97-6.78-13.86-9.81-4.95-2.95-10.16-5.62-15.61-7.96-5.48-2.28-11.21-4.18-17.12-5.71-5.92-1.5-12.04-2.49-18.27-3.1-12.47-1.11-25.45-.42-38.22,2.59-6.38,1.49-12.74,3.44-18.9,6.05-6.17,2.59-12.19,5.7-17.95,9.34-23.11,14.43-41.81,37.83-50.49,65.47-3.01,9.66-4.75,19.61-5.32,29.51-.06,1.24-.07,2.48-.11,3.71-.01,1.24-.1,2.47-.05,3.7.03,1.23.05,2.46.08,3.69.03,1.23.14,2.45.21,3.68l.12,1.83.19,1.82c.13,1.21.25,2.43.4,3.64.37,2.41.68,4.82,1.18,7.19,3.64,19.04,11.92,36.52,23.04,50.8l.29.38h-.48l.19-.38c2.56,3.1,5.19,6.13,7.53,9.37,2.38,3.2,4.61,6.47,6.72,9.79,4.21,6.63,7.92,13.44,11.05,20.37,6.28,13.84,10.07,28.2,11.21,42.09l-.21-.2c48.18.02,90.32.05,124.05.06l-.15.16c-.11-6.99.79-13.58,1.93-19.7,1.15-6.13,2.77-11.78,4.39-17,.9-2.58,1.77-5.07,2.65-7.44.96-2.34,1.89-4.59,2.77-6.74.99-2.1,1.94-4.12,2.85-6.03.23-.48.45-.95.67-1.42.24-.45.49-.9.72-1.35.48-.89.94-1.75,1.39-2.58.92-1.66,1.7-3.28,2.6-4.71.88-1.44,1.7-2.78,2.46-4.02.77-1.24,1.44-2.4,2.12-3.42.7-1.01,1.33-1.92,1.89-2.74,1.13-1.63,1.99-2.87,2.57-3.71.58-.83.89-1.26.89-1.26h0-.01Z" fill="#263238"/><path d="m148.47,216.19s-.04-.09-.11-.26c-.07-.2-.16-.46-.27-.79-.24-.73-.57-1.75-.99-3.06-.21-.67-.45-1.41-.71-2.21-.24-.82-.44-1.72-.69-2.68-.46-1.93-1.1-4.1-1.49-6.57-.23-1.23-.47-2.51-.72-3.85-.24-1.34-.36-2.76-.56-4.21-.44-2.91-.58-6.04-.8-9.34-.23-6.6-.01-13.88.97-21.44,1.07-7.56,2.79-14.63,4.78-20.93,1.09-3.12,2.06-6.1,3.26-8.79.58-1.35,1.08-2.68,1.66-3.91.6-1.22,1.17-2.4,1.72-3.52,1.04-2.27,2.23-4.2,3.19-5.93.49-.86.93-1.67,1.38-2.4.46-.71.89-1.36,1.27-1.94.75-1.14,1.35-2.04,1.77-2.68.19-.28.35-.51.47-.69.11-.15.17-.23.17-.23,0,0-.04.09-.13.25-.11.18-.25.42-.43.72-.4.65-.97,1.57-1.69,2.73-.37.59-.78,1.25-1.23,1.96-.43.73-.86,1.55-1.34,2.41-.94,1.74-2.1,3.67-3.12,5.95-.54,1.12-1.1,2.3-1.68,3.53-.58,1.23-1.06,2.56-1.63,3.91-1.18,2.68-2.13,5.66-3.21,8.77-1.95,6.28-3.66,13.33-4.72,20.86-.98,7.53-1.21,14.78-1.01,21.36.21,3.28.33,6.41.75,9.31.19,1.45.3,2.86.53,4.2.24,1.34.47,2.62.68,3.85.37,2.46.98,4.64,1.42,6.57.23.96.43,1.86.65,2.68.24.81.46,1.55.66,2.22.39,1.31.69,2.34.91,3.08.09.33.17.6.22.81.05.18.07.28.06.28Z" fill="#263238"/><path d="m184.28,90.07c.09.1-2.8,2.74-6.45,5.89-3.65,3.15-6.68,5.62-6.77,5.52-.09-.1,2.8-2.74,6.45-5.89,3.65-3.15,6.68-5.62,6.77-5.52Z" fill="#263238"/><path d="m348.32,229.79s.02-.08.08-.21c.08-.16.17-.36.28-.61.27-.56.65-1.33,1.12-2.31.25-.5.52-1.06.82-1.66.29-.61.57-1.29.89-2.01.62-1.45,1.4-3.08,2.08-4.95.36-.93.73-1.9,1.12-2.91.39-1.01.71-2.09,1.09-3.2.79-2.2,1.43-4.61,2.16-7.14,1.32-5.08,2.49-10.75,3.24-16.76.7-6.02.92-11.81.85-17.06-.1-2.62-.15-5.12-.39-7.45-.11-1.16-.17-2.29-.3-3.37-.14-1.07-.27-2.11-.4-3.09-.21-1.98-.58-3.74-.84-5.3-.14-.78-.25-1.5-.38-2.17-.14-.66-.28-1.26-.4-1.81-.23-1.06-.4-1.89-.53-2.51-.05-.26-.09-.48-.13-.66-.03-.15-.04-.23-.03-.23s.03.07.08.22c.05.17.1.38.17.64.15.61.36,1.44.62,2.49.13.55.28,1.15.44,1.8.15.66.27,1.39.42,2.16.28,1.56.67,3.32.91,5.3.14.99.28,2.02.43,3.1.14,1.08.21,2.21.33,3.38.26,2.33.33,4.84.44,7.47.09,5.27-.11,11.08-.82,17.13-.76,6.04-1.94,11.73-3.29,16.82-.74,2.53-1.4,4.95-2.21,7.15-.39,1.11-.73,2.19-1.12,3.2-.4,1.01-.79,1.98-1.16,2.91-.7,1.87-1.5,3.49-2.15,4.93-.33.72-.63,1.39-.93,2-.31.6-.6,1.15-.86,1.64-.51.96-.91,1.71-1.2,2.27-.13.24-.24.43-.32.58-.08.13-.12.19-.12.19Z" fill="#263238"/><path d="m309.47,115.05c-6.41-3.67-13.11-7.02-20.32-8.61-1.01-.22-2.05-.41-3.08-.26-1.02.16-2.04.72-2.49,1.65-.62,1.28-.02,2.82.76,4,1.73,2.62,4.33,4.52,6.95,6.26,7.16,4.75,14.86,8.62,22.54,12.48-.97-5.47-2.89-10.17-4.36-15.52" fill="#f2e9da"/><path d="m358.62,129.18c2.09,7.08,4.62,14.13,8.73,20.28.58.86,1.2,1.72,2.05,2.31.85.59,1.97.89,2.94.53,1.33-.5,1.96-2.02,2.21-3.42.56-3.09,0-6.26-.69-9.33-1.89-8.38-4.78-16.5-7.66-24.6-3.08,4.62-4.94,9.34-7.58,14.23" fill="#f2e9da"/><path d="m309.37,114.91s.5,49.07,28.04,50.03c27.54.96,28.69-49.68,28.69-50.03,0,0-3.25-7.32-28.37-7.03-25.11.29-28.37,7.03-28.37,7.03Z" fill="#f2e9da"/><path d="m345.95,134.39c-.38,5.23-4.93,9.16-10.16,8.78-5.23-.38-9.16-4.93-8.78-10.16.38-5.23,4.93-9.16,10.16-8.78,5.23.38,9.16,4.93,8.78,10.16Z" fill="#263238"/><path d="m343.38,134.2c-.28,3.81-3.59,6.67-7.4,6.4-3.81-.28-6.67-3.59-6.4-7.4.28-3.81,3.59-6.67,7.4-6.4s6.67,3.59,6.4,7.4Z" fill="#fff"/><path d="m340.04,135.46s-.05-.43-.06-1.14c-.02-.72-.03-1.74-.03-2.98l.08.14c-1.04-.6-2.24-1.31-3.56-2.08h.2c-1.12.63-2.33,1.31-3.59,2.02-.1.16.13-.22.11-.18h0s0,0,0,0h0s0,.03,0,.03v.03s0,.07,0,.07v.14s0,.27,0,.27v.53c-.01.35-.02.7-.03,1.05-.01.69-.03,1.35-.04,2l-.1-.17c1.3.79,2.49,1.52,3.52,2.15h-.16c1.1-.59,2-1.06,2.64-1.39.64-.32,1.01-.5,1.03-.48.03.02-.29.22-.9.59-.61.37-1.5.9-2.62,1.55l-.08.04-.08-.05c-1.04-.61-2.24-1.31-3.56-2.08l-.1-.06v-.12c0-.64.01-1.31.02-2,0-.34,0-.69.01-1.05v-.53s.01-.27.01-.27v-.14s0-.07,0-.07v-.03s0-.02,0-.02h0s0-.01,0-.01h0s.2-.35.11-.19c1.27-.7,2.48-1.38,3.6-2l.1-.06.1.06c1.3.79,2.49,1.52,3.52,2.15l.08.05v.09c-.04,1.3-.09,2.34-.12,3.04-.04.71-.07,1.09-.1,1.07Z" fill="#ff725e"/><path d="m309.26,114.86s.05.01.14.04c.1.03.24.08.42.14.37.13.91.32,1.6.56.35.12.73.26,1.15.41.42.14.89.27,1.39.43,1,.3,2.13.68,3.4.98.64.16,1.3.33,2,.51.69.17,1.43.31,2.18.47,1.51.35,3.14.58,4.85.86,3.44.47,7.25.79,11.25.8,4.01-.02,7.82-.34,11.26-.8,1.71-.28,3.35-.51,4.85-.86.75-.16,1.49-.29,2.18-.47.69-.18,1.36-.35,2-.51,1.28-.3,2.4-.68,3.4-.98.5-.16.97-.29,1.39-.43.42-.15.8-.29,1.15-.41.69-.24,1.22-.43,1.6-.56.18-.06.31-.11.42-.14.09-.03.14-.05.14-.04,0,0-.05.02-.14.06-.1.04-.24.09-.41.16-.37.14-.9.34-1.58.6-.35.13-.73.27-1.15.43-.42.15-.89.29-1.39.45-1,.31-2.12.7-3.4,1.01-.64.17-1.3.34-2,.52-.7.18-1.43.31-2.19.48-1.51.35-3.14.59-4.86.88-3.45.48-7.26.8-11.28.82-4.02-.02-7.83-.34-11.28-.82-1.72-.28-3.35-.52-4.86-.88-.75-.17-1.49-.3-2.19-.48-.69-.18-1.36-.36-2-.53-1.28-.31-2.4-.7-3.4-1.01-.5-.16-.96-.3-1.39-.45-.42-.16-.8-.3-1.15-.43-.68-.26-1.21-.46-1.58-.6-.17-.07-.31-.12-.41-.16-.09-.04-.14-.06-.14-.06Z" fill="#263238"/><g fill="none" opacity=".3"><path d="m309.37,114.91s3.25-6.75,28.37-7.03c25.11-.29,28.37,7.03,28.37,7.03,0,0-25.33,12.49-56.73,0Z"/></g><path d="m318.01,149.83s-.02-.02-.05-.07c-.03-.06-.07-.13-.12-.22-.11-.21-.26-.5-.45-.86-.1-.19-.21-.4-.32-.62-.11-.23-.23-.49-.35-.76-.25-.54-.54-1.16-.82-1.86-.14-.35-.29-.71-.45-1.1-.14-.39-.29-.79-.45-1.2-.32-.83-.59-1.74-.91-2.68-.59-1.91-1.16-4.02-1.67-6.27-.49-2.25-.87-4.41-1.17-6.38-.28-1.97-.49-3.76-.61-5.26-.07-.75-.12-1.43-.15-2.03-.04-.6-.07-1.11-.08-1.53-.01-.41-.02-.73-.03-.97,0-.1,0-.18,0-.25,0-.06,0-.09,0-.09s0,.03.01.09c0,.07.01.15.02.25.02.24.04.56.07.97.02.42.06.93.12,1.53.05.6.1,1.28.18,2.02.14,1.5.37,3.28.65,5.25.31,1.97.69,4.12,1.18,6.37.5,2.24,1.07,4.35,1.65,6.26.32.94.58,1.85.9,2.68.15.42.29.82.43,1.2.15.38.3.75.44,1.1.27.7.55,1.32.79,1.87.12.27.23.53.34.76.11.23.21.44.31.63.18.37.32.66.42.87.04.09.08.17.11.23.02.05.03.08.03.08Z" fill="#fff"/><path d="m331.27,161.62s-.16,0-.44-.05c-.28-.04-.68-.14-1.17-.28-.49-.14-1.06-.36-1.67-.64-.61-.29-1.26-.66-1.89-1.1-.63-.45-1.2-.94-1.68-1.41-.47-.48-.87-.94-1.17-1.35-.3-.41-.53-.76-.66-1.01-.14-.25-.21-.39-.2-.39.03-.02.34.53.97,1.32.31.4.71.84,1.18,1.31.48.46,1.04.93,1.66,1.38.63.44,1.27.8,1.86,1.1.6.29,1.15.51,1.63.67.95.32,1.57.43,1.57.47Z" fill="#fff"/><path d="m337.01,144.31s-.09.02-.26.03c-.17,0-.43.04-.76.02-.66,0-1.61-.11-2.74-.45-.57-.17-1.16-.41-1.79-.72-.61-.33-1.25-.71-1.86-1.2-1.22-.96-2.36-2.32-3.1-3.97-.71-1.67-.92-3.42-.79-4.97.05-.78.22-1.51.39-2.18.2-.66.43-1.27.69-1.8.52-1.06,1.1-1.83,1.55-2.31.21-.25.41-.41.53-.54.13-.12.19-.18.2-.17.01.01-.25.27-.67.76-.43.49-.98,1.27-1.48,2.32-.25.52-.47,1.12-.66,1.78-.17.66-.32,1.38-.37,2.15-.12,1.53.09,3.25.79,4.88.72,1.62,1.83,2.95,3.03,3.91.59.49,1.22.87,1.82,1.2.61.31,1.2.56,1.75.73,1.11.35,2.05.48,2.71.5.65.03,1.01,0,1.02.03Z" fill="#fff"/><path d="m335.83,63.89s-24.01-.29-27.81,20.5c-3.8,20.79,16.5,21.18,22.34,21.58,2.65.18,8.31.2,13.31.11,11.07-.19,18.89-2.33,21.55-12.6.31-1.2.52-2.43.6-3.68.7-11.25-6.91-26.47-29.99-25.91Z" fill="#f2e9da"/><path d="m353.24,95.56l-34.88.54c-3.66.06-6.67-2.86-6.72-6.52h0c-.06-3.66,2.86-6.67,6.52-6.72l34.88-.54c3.66-.06,6.67,2.86,6.72,6.52h0c.06,3.66-2.86,6.67-6.52,6.72Z" fill="#ffbd29"/><path d="m325.6,88.86c-.23,1.15-1.34,1.9-2.49,1.68-1.15-.23-1.9-1.34-1.68-2.49.23-1.15,1.34-1.9,2.49-1.68s1.9,1.34,1.68,2.49Z" fill="#fff"/><path d="m349.97,88.47c-.23,1.15-1.34,1.9-2.49,1.68-1.15-.23-1.9-1.34-1.68-2.49.23-1.15,1.34-1.9,2.49-1.68s1.9,1.34,1.68,2.49Z" fill="#fff"/><path d="m331.71,87.88c.16.02.08.76.54,1.75.22.49.6,1.03,1.13,1.48.53.46,1.23.81,2,.89.77.06,1.52-.16,2.12-.51.6-.35,1.07-.81,1.38-1.25.64-.89.69-1.63.85-1.62.06,0,.13.19.13.54,0,.35-.1.86-.39,1.43-.28.57-.78,1.18-1.49,1.66-.71.48-1.66.8-2.69.72-1.03-.1-1.91-.6-2.51-1.19-.61-.6-.99-1.29-1.17-1.9-.18-.61-.19-1.14-.12-1.48.06-.35.16-.52.22-.51Z" fill="#fff"/><path d="m332.79,65.44s-.03,0-.09.01c-.07,0-.15.01-.25.02-.22.02-.55.03-.97.08-.85.08-2.07.24-3.54.59-1.48.34-3.21.9-5.02,1.74-1.82.84-3.72,1.99-5.5,3.46-1.78,1.48-3.27,3.12-4.44,4.75-1.17,1.63-2.04,3.22-2.66,4.6-.62,1.39-1.01,2.55-1.25,3.37-.13.4-.2.73-.26.94-.03.1-.05.18-.07.24-.02.05-.03.08-.03.08s0-.03.01-.09c.01-.07.03-.15.05-.25.05-.22.11-.54.23-.95.21-.82.59-2,1.2-3.4.6-1.4,1.47-3.01,2.64-4.65,1.17-1.64,2.67-3.3,4.46-4.8,1.8-1.48,3.72-2.63,5.55-3.47,1.84-.84,3.58-1.38,5.07-1.71,1.49-.33,2.72-.47,3.57-.53.42-.04.76-.03.98-.04.1,0,.19,0,.25,0,.06,0,.09,0,.09,0Z" fill="#fff"/><path d="m309.3,94.25s-.17-.27-.34-.75c-.17-.48-.37-1.15-.49-1.92-.12-.77-.14-1.47-.12-1.98.02-.51.07-.82.1-.82.06,0-.02,1.25.22,2.76.23,1.51.69,2.68.64,2.7Z" fill="#fff"/><path d="m347.48,81.1c0,.05-4.59.1-10.26.1s-10.26-.04-10.26-.1,4.59-.1,10.26-.1,10.26.04,10.26.1Z" fill="#fff"/><path d="m329.97,104.49s-.06.02-.17.03c-.14.01-.3.03-.5.04-.22.02-.48.04-.79.04-.31,0-.66.02-1.05.01-.78,0-1.71-.06-2.74-.16-1.03-.12-2.15-.3-3.31-.57-1.16-.28-2.25-.62-3.22-.97-.97-.36-1.82-.73-2.52-1.07-.35-.16-.66-.34-.94-.48-.28-.14-.51-.28-.69-.39-.17-.1-.31-.19-.43-.26-.1-.06-.15-.1-.14-.1s.06.02.16.07c.12.06.27.14.45.23.19.1.43.23.71.36.28.13.59.3.95.45.7.33,1.56.68,2.53,1.03.97.34,2.05.67,3.2.95,1.15.27,2.27.45,3.29.58,1.02.12,1.94.19,2.72.2.39.02.74.01,1.05.02.31,0,.57,0,.79,0,.2,0,.36,0,.5,0,.11,0,.18,0,.18.01Z" fill="#fff"/><path d="m359.33,117.9s-.03.02-.09.04c-.07.03-.16.06-.27.1-.25.09-.6.21-1.04.37-.45.16-1.01.35-1.66.54-.65.2-1.39.44-2.22.65-.42.11-.85.22-1.3.34-.45.12-.93.22-1.42.33-.98.24-2.04.42-3.16.64-2.24.38-4.72.69-7.33.86-2.62.15-5.12.14-7.38.04-1.13-.07-2.21-.13-3.21-.24-.5-.05-.99-.09-1.45-.15-.46-.06-.91-.12-1.33-.18-.85-.1-1.61-.26-2.29-.37-.67-.11-1.25-.23-1.72-.34-.46-.1-.82-.18-1.08-.24-.11-.03-.21-.05-.28-.07-.06-.02-.09-.03-.09-.03,0,0,.03,0,.1.01.07.01.17.03.28.05.26.05.63.12,1.08.2.47.09,1.05.2,1.72.3.67.1,1.43.25,2.29.34.43.05.87.11,1.33.17.46.06.95.09,1.45.14,1,.11,2.08.16,3.21.23,2.26.09,4.75.1,7.36-.06,2.61-.17,5.08-.48,7.31-.85,1.11-.2,2.17-.39,3.15-.62.49-.11.97-.2,1.42-.32.45-.12.89-.23,1.3-.33.83-.2,1.57-.43,2.23-.62.66-.18,1.21-.36,1.67-.51.45-.14.8-.25,1.05-.34.11-.03.2-.06.28-.08.06-.02.09-.03.1-.02Z" fill="#fff"/><path d="m131.26,279.24l.07,13s21.58-12.23,15.25-23.85l-15.31,10.85Z" fill="#ff725e"/><path d="m133.37,249.21s-15.53-5.69-27.34,4.89l12.11,6.83,15.23-11.72Z" fill="#ff725e"/><path d="m118.13,260.93c.49.64,13.13,18.31,13.13,18.31l33.01-23.4c5.76-4.09,6.8-12.23,2.23-17.62h0c-4.16-4.92-11.45-5.7-16.56-1.77l-31.82,24.48Z" fill="#f5f5f5"/><path d="m118.13,260.93s.08-.08.26-.23c.2-.16.48-.38.83-.66.76-.59,1.84-1.44,3.22-2.53,2.85-2.22,6.93-5.39,11.96-9.31,2.54-1.97,5.32-4.12,8.3-6.43,1.49-1.16,3.04-2.35,4.63-3.58.8-.61,1.6-1.24,2.42-1.87.85-.61,1.74-1.21,2.74-1.61.48-.24,1.01-.37,1.53-.55.53-.11,1.06-.27,1.61-.32,1.09-.17,2.22-.15,3.34,0,2.24.3,4.44,1.25,6.23,2.76.92.73,1.67,1.67,2.36,2.64.65,1,1.17,2.1,1.52,3.26.68,2.33.67,4.89-.09,7.27-.74,2.26-2.11,4.31-3.93,5.75-1.83,1.41-3.68,2.64-5.48,3.94-3.61,2.55-7.09,5.01-10.42,7.37-6.66,4.7-12.68,8.95-17.81,12.56l-.15.1-.1-.14c-4.02-5.68-7.28-10.28-9.56-13.49-1.1-1.57-1.96-2.8-2.57-3.65-.28-.4-.49-.71-.65-.95-.14-.21-.21-.32-.21-.32,0,0,.1.11.26.33.17.23.41.55.7.95.62.85,1.52,2.07,2.66,3.63,2.3,3.16,5.59,7.7,9.65,13.3l-.25-.04c5.11-3.64,11.12-7.92,17.75-12.64,3.32-2.36,6.8-4.83,10.4-7.39,1.78-1.29,3.67-2.55,5.45-3.92,1.75-1.38,3.06-3.35,3.77-5.52.73-2.28.74-4.74.09-6.98-.34-1.11-.84-2.17-1.46-3.13-.66-.93-1.38-1.84-2.26-2.54-1.72-1.46-3.84-2.38-5.99-2.67-1.07-.14-2.16-.17-3.21,0-.53.04-1.04.2-1.55.3-.5.17-1.01.3-1.47.53-1.93.78-3.45,2.21-5.06,3.39-1.59,1.21-3.13,2.39-4.61,3.53-2.98,2.28-5.76,4.4-8.3,6.33-5.08,3.86-9.2,6.99-12.07,9.18-1.42,1.07-2.53,1.91-3.31,2.5-.37.27-.66.49-.87.65-.2.15-.31.22-.31.22Z" fill="#263238"/><path d="m133.95,259.92l-20.63,14.83s.89,2.26,1.45,2.04c.47-.19,16.01-10.77,21.05-14.21.82-.56.95-1.72.27-2.45h0c-.56-.6-1.47-.69-2.14-.21Z" fill="#ff725e"/><path d="m155.36,250.6c.25,3.8-2.64,7.08-6.44,7.33-3.8.25-7.08-2.64-7.33-6.44s2.64-7.08,6.44-7.33,7.08,2.64,7.33,6.44Z" fill="#fff"/><path d="m155.36,250.6c-.05,0-.06-.61-.41-1.64-.34-1.01-1.13-2.46-2.75-3.52-.8-.51-1.79-.93-2.91-1.05-1.11-.11-2.34,0-3.49.53-1.15.5-2.21,1.37-2.94,2.53-.75,1.14-1.12,2.57-1.04,4.02.11,1.44.66,2.81,1.54,3.85.87,1.05,2.04,1.78,3.24,2.13,1.2.38,2.44.33,3.53.08,1.09-.26,2.02-.8,2.75-1.41,1.47-1.25,2.07-2.8,2.28-3.84.21-1.06.14-1.68.2-1.68.02,0,.03.15.05.44.02.29.02.72-.07,1.27-.16,1.08-.73,2.71-2.24,4.06-.75.66-1.72,1.25-2.87,1.54-1.14.29-2.46.34-3.74-.04-1.28-.36-2.54-1.13-3.47-2.25-.95-1.1-1.55-2.57-1.66-4.12-.09-1.54.31-3.08,1.12-4.29.78-1.23,1.92-2.15,3.15-2.68,1.22-.55,2.53-.66,3.71-.52,1.18.14,2.22.6,3.05,1.16,1.67,1.14,2.45,2.69,2.74,3.74.16.53.22.96.23,1.25.02.29.02.44,0,.44Z" fill="#263238"/><path d="m165.82,254.54c11.09-10.37,9.11-22.38,9.11-22.38-14.91-3.92-24.98,4.29-24.98,4.29,9.93,1.4,15.24,7.41,15.87,18.09Z" fill="#ff725e"/><path d="m283.59,210.41l3.83,35.4,22.8,7.6.92,11.03-32.18-2.15s-9.91.24-12.07-12.83l-.52-34.34,17.23-4.7Z" fill="#ffbe9d"/><path d="m330.9,264.24c-.42.48-1.1.69-1.7.47-.12-.04-.24-.1-.36-.18-.8-.51-.25-2.28-.25-2.28l-4.02-1.8s-6.39,2.08-8.96,3.9c-2.56,1.82-7.02-1.38-7.02-1.38l.65-9.41,9.58-4.95s-.59.29.29-.88c.88-1.17,3.18-.03,3.18-.03.55-.55,2.2-.36,2.2-.36l6.58,2.57c1.36.53,2.4,1.65,2.83,3.03l1.67,5.3s.65,3.67.21,4.37c-.67,1.05-1.82.47-1.82.47,0,0-.9,2.06-1.49,1.99-.58-.07-1.57-.85-1.57-.85h0Z" fill="#ffbe9d"/><path d="m317.47,263.31s.17-.06.48-.2c.35-.16.81-.36,1.38-.61,1.21-.51,2.99-1.22,5.27-1.89h-.1c1.2.54,2.55,1.15,4.01,1.82l-.1-.22c-.1.34-.17.68-.19,1.05-.02.36,0,.76.21,1.14.12.19.31.33.49.4.17.1.37.17.58.19.42.05.85-.06,1.2-.3.09-.06.17-.13.25-.2l.06-.06.03-.03h.01s0-.02,0-.02c.06,0-.51.05-.27.03h0s0,0,0,0l.12.09c.16.12.32.23.49.34.17.11.35.21.54.3.1.04.19.09.3.12.1.03.22.07.41.03.28-.11.42-.28.56-.45.13-.17.25-.34.36-.52.22-.36.41-.73.58-1.12l-.29.1c.52.24,1.2.28,1.71-.12.23-.19.45-.44.51-.77.06-.3.07-.57.07-.85-.02-1.11-.18-2.21-.36-3.33h0s0-.03,0-.03c-.28-.9-.58-1.86-.89-2.83-.19-.6-.38-1.2-.56-1.79-.19-.58-.34-1.21-.67-1.77-.32-.56-.75-1.04-1.26-1.41-.5-.39-1.1-.61-1.64-.82-2.18-.85-4.26-1.65-6.2-2.41h-.03s-.02-.01-.02-.01c-.41-.04-.8-.04-1.2,0-.39.05-.8.11-1.15.42h.25c-.64-.5-1.47-.72-2.21-.47-.74.25-1.21.84-1.53,1.43l.07-.08c-2.75,1.41-4.99,2.56-6.6,3.38-.74.39-1.34.71-1.79.94-.41.22-.62.34-.61.36,0,.01.23-.08.65-.27.46-.22,1.07-.5,1.82-.86,1.62-.79,3.89-1.9,6.66-3.25l.05-.02.03-.05c.29-.52.74-1.06,1.34-1.24.6-.21,1.32,0,1.86.41l.13.1.12-.11c.21-.19.57-.27.93-.31.36-.03.74-.03,1.12,0h-.05c1.94.75,4.01,1.57,6.19,2.43.56.21,1.08.41,1.53.76.45.34.85.78,1.13,1.28.3.49.43,1.08.63,1.68.19.59.37,1.19.56,1.79.31.97.61,1.93.89,2.83v-.03c.18,1.1.33,2.2.35,3.25,0,.26,0,.53-.05.75-.03.2-.18.38-.35.52-.33.28-.86.26-1.25.08l-.2-.09-.09.2c-.17.37-.35.73-.55,1.07-.19.32-.46.7-.68.79-.01,0-.09,0-.18-.03-.08-.02-.17-.06-.25-.09-.17-.08-.33-.17-.49-.27-.16-.1-.32-.2-.47-.31l-.11-.08h0s0,0,0,0c.24-.02-.33.03-.27.02h0s-.01.01-.01.01l-.02.02-.04.05c-.06.06-.12.11-.19.16-.27.19-.61.28-.93.25-.16-.01-.31-.07-.45-.15-.16-.07-.26-.14-.34-.26-.29-.52-.15-1.28,0-1.88l.04-.16-.14-.06c-1.47-.65-2.83-1.24-4.03-1.77l-.05-.02-.05.02c-2.29.72-4.06,1.47-5.25,2.03-.6.28-1.05.52-1.35.68-.3.17-.45.26-.45.28Z" fill="#eb996e"/><path d="m322.81,250.41s.7.57,2.01,1.22c1.31.66,3.22,1.42,5.49,1.88l-.18-.21c.03.36.06.75.11,1.14.31,2.57,1.21,4.78,2.04,6.24.41.74.8,1.3,1.09,1.67.29.37.47.56.49.54.06-.04-.55-.88-1.29-2.37-.74-1.48-1.56-3.64-1.87-6.15-.05-.38-.08-.75-.11-1.11v-.18s-.18-.03-.18-.03c-2.22-.44-4.12-1.14-5.45-1.71-1.33-.58-2.1-1-2.14-.95Z" fill="#eb996e"/><path d="m328.2,256.06c-.11,0-.17,1.98.67,4.25.82,2.27,2.14,3.76,2.22,3.68.12-.08-1-1.64-1.79-3.84-.81-2.19-.97-4.1-1.11-4.09Z" fill="#eb996e"/><path d="m307.97,259.9s.05.07.18.18c.13.11.33.26.6.44.55.34,1.41.79,2.59,1.01,1.17.22,2.68.23,4.21-.38,1.52-.59,3.06-1.77,4.03-3.5l-.29.09c1.44.69,3.09,1.24,4.85,1.53.63.1,1.26.17,1.88.21.61.03,1.25.07,1.88-.11.29-.08.66-.25.85-.57.2-.31.23-.68.15-1.01-.09-.33-.31-.63-.61-.79-.25-.14-.49-.27-.73-.4-1.93-1.04-3.71-1.9-5.23-2.56-1.52-.67-2.77-1.15-3.64-1.47-.87-.31-1.36-.46-1.37-.43-.01.03.46.24,1.31.6.85.37,2.08.9,3.57,1.6,1.49.7,3.25,1.58,5.16,2.64.24.13.48.27.72.4.19.11.34.3.39.53.05.22.03.47-.1.66-.12.19-.33.29-.6.37-.52.15-1.12.12-1.73.09-.61-.04-1.22-.1-1.83-.2-1.71-.28-3.32-.81-4.73-1.47l-.19-.09-.1.18c-.9,1.63-2.34,2.78-3.78,3.36-1.45.6-2.89.63-4.02.45-1.15-.18-2-.57-2.56-.87-.56-.3-.84-.51-.86-.49Z" fill="#eb996e"/><path d="m335.47,392.19s.06-.32-.03-.88c-.09-.56-.32-1.38-.89-2.24-.15-.21-.29-.44-.53-.65-.23-.21-.62-.37-1-.22-.19.06-.38.23-.44.44-.07.21-.03.43.02.6.12.36.31.61.46.9.35.58.63,1.16,1.07,1.82.22.34.73.61,1.19.53.45-.06.82-.28,1.15-.51.64-.46,1.2-.99,1.68-1.55.24-.28.46-.57.66-.86.19-.29.41-.59.5-.99.09-.39-.06-.9-.51-1.08-.45-.16-.82.06-1.07.24-.51.42-.81.85-1.12,1.27-.59.84-.92,1.6-1.1,2.14-.18.54-.22.85-.19.86.09.04.39-1.2,1.59-2.78.3-.37.67-.82,1.08-1.14.21-.15.47-.25.63-.17.17.06.26.31.21.56-.05.25-.24.52-.44.8-.19.28-.41.55-.64.81-.46.53-1,1.03-1.6,1.46-.29.21-.6.38-.9.41-.29.04-.53-.08-.72-.33-.37-.53-.72-1.2-1.06-1.75-.16-.29-.36-.56-.45-.8-.09-.25-.04-.41.14-.49.4-.17.8.29,1.07.68,1.14,1.61,1.12,2.95,1.22,2.91Z" fill="#263238"/><polygon points="312.59 392.97 301.23 417.59 282.89 409.12 294.64 378.65 312.59 392.97" fill="#ffbe9d"/><path d="m303.37,415.95l-6.64,12.66s16.99,17.57,15.4,21.5l-39.94-19.15,10.97-25.39,20.21,10.39Z" fill="#1f2251"/><path d="m285.21,420.95c-.87-.16-1.83.45-2.02,1.32-.19.87.42,1.84,1.29,2.01.87.17,2.04-.53,2.13-1.41.1-.88-.69-1.99-1.58-1.95" fill="#e0e0e0"/><g fill="none" opacity=".6"><path d="m272.19,430.95l1.66-3.18,37.68,19.55s1.41,1.63.61,2.78l-39.94-19.15Z" fill="#fff"/></g><path d="m297.48,428.71c-.1.19-1.12-.19-2.38-.02-1.26.13-2.16.74-2.31.58-.16-.12.69-1.15,2.22-1.33,1.53-.19,2.6.61,2.47.77Z" fill="#263238"/><path d="m300.84,432.46c-.05.21-1.05.14-2.11.64-1.07.48-1.67,1.29-1.86,1.19-.2-.06.21-1.26,1.54-1.87,1.32-.62,2.51-.15,2.42.04Z" fill="#263238"/><path d="m300.81,438.61c-.2-.04,0-1.15,1.01-1.98,1.01-.84,2.13-.82,2.13-.61.03.21-.83.5-1.65,1.2-.84.67-1.29,1.47-1.49,1.39Z" fill="#263238"/><path d="m299.39,423.84c-.17.14-.93-.56-2.07-1.01-1.13-.48-2.16-.52-2.19-.73-.05-.2,1.14-.52,2.47.04,1.34.54,1.95,1.6,1.79,1.71Z" fill="#263238"/><path d="m307.12,412.66l29.95-74.95s-.67-12.79-3.03-16.83c-2.36-4.04-73.7-27.59-73.7-27.59,0,0-18.17-4.37-30.29,0-12.11,4.37-21.2,19.52-19.52,27.93,1.68,8.41,9.42,15.23,9.42,15.23l51.83.92,28.59,10.43-19.26,55.19,26,9.66Z" fill="#25292b"/><polygon points="333.75 361.45 334.43 388.56 314.24 389.05 311.33 356.52 333.75 361.45" fill="#ffbe9d"/><path d="m335.63,386.13l-.37,14.29s23,8.26,23.3,12.49l-44.3.45-1.36-27.63,22.72.4Z" fill="#1f2251"/><path d="m321.54,398.64c-.86.24-1.44,1.21-1.23,2.08.21.86,1.19,1.47,2.05,1.24.86-.23,1.59-1.37,1.29-2.21-.3-.84-1.49-1.48-2.27-1.05" fill="#e0e0e0"/><g fill="none" opacity=".6"><path d="m314.27,413.36l.09-3.59,42.44.91s1.98.84,1.77,2.23l-44.3.45Z" fill="#fff"/></g><path d="m335.98,400.19c0,.22-1.09.33-2.14,1.03-1.08.68-1.62,1.62-1.82,1.54-.2-.04.11-1.34,1.4-2.17,1.29-.84,2.6-.6,2.55-.4Z" fill="#263238"/><path d="m340.64,402.07c.05.21-.88.59-1.61,1.51-.75.9-.93,1.89-1.14,1.88-.2.04-.37-1.23.56-2.36.91-1.14,2.18-1.24,2.19-1.03Z" fill="#263238"/><path d="m343.34,407.6c-.2.05-.51-1.03.04-2.22.53-1.19,1.55-1.67,1.64-1.49.12.18-.53.82-.96,1.8-.45.97-.51,1.89-.72,1.91Z" fill="#263238"/><path d="m335.53,394.97c-.09.2-1.08-.09-2.31,0-1.22.07-2.17.49-2.29.31-.13-.16.79-.97,2.23-1.06,1.44-.1,2.46.57,2.36.75Z" fill="#1f2251"/><path d="m321.96,286.18s12.1-.97,13.44,12.16c1.35,13.12,2.67,74.37,2.67,74.37l-28.27,2.36-4.37-62.59-45.09-19.18s53.55-8.79,61.63-7.11Z" fill="#25292b"/><path d="m272.1,268.47s7.34,20.58,5.94,22.88c-1.4,2.29-20.28,11.73-20.28,11.73l-47.24,18.14s-4.85-7.72-4.85-19.57,16.43-33.18,16.43-33.18h49.99Z" fill="#25292b"/><path d="m258.1,292.24s.07.05.22.12c.17.08.39.18.67.31.62.28,1.5.67,2.62,1.16,2.32,1.01,5.65,2.46,9.82,4.28,8.43,3.63,20.23,8.71,33.9,14.59l-.15-.22c.43,6.18.89,12.86,1.37,19.77,1.15,16.15,2.21,31.04,3.05,42.82l.02.21.21-.02c8.6-.75,15.65-1.37,20.59-1.81,2.43-.23,4.34-.4,5.67-.53.63-.07,1.12-.12,1.48-.15.33-.04.51-.06.5-.07,0-.01-.17,0-.51.01-.36.02-.86.05-1.49.09-1.34.1-3.25.24-5.68.42-4.94.39-12,.95-20.61,1.63l.23.19c-.81-11.78-1.83-26.68-2.94-42.83-.49-6.91-.96-13.59-1.39-19.77v-.15s-.15-.06-.15-.06c-13.7-5.81-25.53-10.84-33.97-14.42-4.19-1.76-7.54-3.16-9.88-4.14-1.13-.47-2.02-.83-2.65-1.09-.28-.11-.51-.2-.69-.27-.16-.06-.24-.09-.24-.08Z" fill="#455a64"/><path d="m220.53,294.3s.48-.1,1.33-.36c.94-.3,2.13-.69,3.56-1.15,3-.95,7.16-2.28,11.9-3.01,4.74-.73,9.12-.51,12.19.16,3.08.64,4.84,1.51,4.88,1.41.01-.03-.41-.27-1.23-.62-.81-.36-2.03-.79-3.57-1.16-3.08-.77-7.55-1.06-12.34-.31-4.8.74-8.97,2.13-11.94,3.18-1.49.53-2.68.98-3.51,1.31-.82.32-1.27.52-1.26.56Z" fill="#455a64"/><path d="m227.21,283.45c.01.08,1.58-.22,4.13-.02,1.27.09,2.79.28,4.47.48,1.68.2,3.53.43,5.44.79,3.84.68,7.14,2.02,9.26,3.43,2.14,1.39,3.14,2.66,3.21,2.59.02-.02-.2-.36-.69-.89-.49-.53-1.25-1.26-2.31-2.01-2.1-1.52-5.48-2.95-9.37-3.64-1.94-.37-3.8-.58-5.49-.75-1.69-.17-3.21-.33-4.51-.37-1.29-.05-2.34.03-3.06.14-.72.11-1.1.23-1.09.26Z" fill="#455a64"/><path d="m248.08,118.05c-5.44-.92-10.21,1.17-14.8,4.23-4.58,3.06-8.04,7.69-10.03,12.83-2.1,5.41-2.61,11.51-1,17.09,1.61,5.58,5.43,10.57,10.61,13.2,7.07,3.59,16.11,2.34,22.44-2.44,6.33-4.78,9.94-12.69,10.25-20.61.21-5.46-1.1-11.04-4.15-15.58-3.05-4.53-7.92-7.92-13.33-8.71" fill="#263238"/><path d="m232.62,136.53c.79-2.08.49-4.4.8-6.6.69-4.85,4.6-8.74,9.13-10.64,4.21-1.76,9.35-1.38,14.41.26,3.47,1.12,6.74,3.08,9.06,5.9,3.07,3.75,4.16,9.04,2.8,13.69l-24.83-3.62c-2.32,1.92-4.7,3.88-7.52,4.95-.83.31-1.72.55-2.59.41-.87-.14-1.72-.73-1.93-1.59-.23-.94.33-1.86.68-2.77Z" fill="#263238"/><path d="m257.49,126.41l-21.68,4.59c-2.1.14-3.74,1.86-3.78,3.96l.26,46.91c.02,3.2,1.09,6.31,3.06,8.85l2.07,2.67c4.71,6.08,14.26,5.47,17.86-1.33.25-.48.43-.89.5-1.23.07-.42.18-.7.2-1.06l.41-4.57c.21-4.18.24-8.42.24-8.38,0,0,8.87-1.12,11.14-12.55,1.13-5.68,1.21-15.07,1.02-22.76-.17-6.92-4.41-15.56-11.31-15.1Z" fill="#ffbe9d"/><path d="m265.15,151.09c0,.78-.67,1.42-1.48,1.43-.81.01-1.47-.61-1.47-1.39,0-.78.67-1.42,1.48-1.43.81-.01,1.47.61,1.47,1.39Z" fill="#263238"/><path d="m266.58,146.31c-.19.19-1.28-.68-2.86-.74-1.58-.08-2.78.69-2.95.49-.08-.09.12-.43.64-.78.51-.35,1.38-.67,2.37-.63.99.04,1.81.44,2.27.83.47.39.63.75.53.83Z" fill="#263238"/><path d="m250.49,150.33c0,.78-.67,1.42-1.48,1.43-.81.01-1.47-.61-1.47-1.39,0-.78.67-1.42,1.48-1.43.81-.01,1.47.61,1.47,1.39Z" fill="#263238"/><path d="m251.51,145.92c-.19.19-1.28-.68-2.86-.74-1.58-.08-2.78.69-2.95.49-.08-.09.12-.43.64-.78.51-.35,1.38-.67,2.37-.63.99.04,1.81.44,2.27.83.47.39.63.75.53.83Z" fill="#263238"/><path d="m256.27,157.99c0-.09.99-.22,2.6-.36.41-.03.79-.09.87-.37.11-.29-.05-.73-.22-1.21-.34-1-.7-2.04-1.08-3.13-1.49-4.46-2.56-8.12-2.38-8.18.18-.06,1.54,3.51,3.03,7.97.36,1.1.7,2.15,1.03,3.15.14.47.38,1,.15,1.6-.12.3-.43.51-.69.57-.26.07-.49.06-.69.07-1.61.02-2.61,0-2.61-.1Z" fill="#263238"/><path d="m256.64,176.82s-7.76.2-15.24-4.71c0,0,3.56,8.11,15.12,7.48l.13-2.78Z" fill="#eb996e"/><path d="m255.45,161.79c-.54-.78-1.53-1.23-2.52-1.16-.69.05-1.4.35-1.84.9-.44.54-.56,1.34-.2,1.89.41.62,1.29.79,2.06.61.77-.19,1.44-.66,2.08-1.13.18-.13.36-.27.47-.45.11-.18.15-.43.02-.59" fill="#eb996e"/><path d="m251.56,158.91c.26,0,.19,1.72,1.62,3,1.42,1.28,3.27,1.16,3.27,1.4.02.11-.42.32-1.2.31-.76,0-1.86-.29-2.74-1.07-.87-.78-1.22-1.8-1.25-2.51-.04-.72.17-1.14.29-1.13Z" fill="#263238"/><path d="m251.42,141.21c-.17.43-1.75.16-3.62.31-1.87.11-3.4.6-3.63.2-.1-.19.17-.59.8-.98.62-.39,1.59-.75,2.72-.83,1.12-.08,2.14.14,2.81.44.67.3,1,.65.93.86Z" fill="#263238"/><path d="m266.39,139.35c-.29.35-1.37-.07-2.69-.14-1.31-.11-2.44.15-2.68-.24-.11-.19.08-.54.58-.86.49-.32,1.31-.57,2.21-.51.9.06,1.67.42,2.12.81.45.39.59.77.46.94Z" fill="#263238"/><path d="m228.65,133.18c2.25-6.6,12.06-15.6,19.01-14.97l10.97,6.88c-.75,3.77-3.74,7.01-7.43,8.05-1.98.56-4.34.68-5.54,2.34-1.23,1.7-.58,4.23-1.73,5.98-1.59,2.43-5.79,2.23-7,4.88-.53,1.16-.29,2.55-.84,3.7-.73,1.53-4.67,3.4-6.27,2.86-1.6-.54-1.55-3.29-2.05-4.74-.85-2.48-.46-3.74-.13-5.11.77-3.24-.06-6.72,1.01-9.87Z" fill="#263238"/><path d="m234.54,154.36c.03-.86-.88-2.91-1.72-3.08-2.25-.44-6.32-.42-6.58,5.32-.36,7.84,7.59,6.58,7.61,6.36.02-.18.59-5.64.69-8.6Z" fill="#ffbe9d"/><path d="m231.59,159.87s-.14.09-.38.18c-.23.09-.62.15-1.02-.03-.81-.34-1.45-1.69-1.43-3.1.01-.71.19-1.39.47-1.94.27-.56.65-.95,1.07-1,.42-.08.7.19.79.41.1.22.04.38.08.39.02.02.17-.12.13-.45-.03-.16-.11-.35-.29-.51-.18-.16-.45-.25-.75-.23-.61.01-1.18.55-1.48,1.15-.34.61-.56,1.36-.57,2.16-.02,1.58.72,3.1,1.84,3.48.54.17,1.01.02,1.26-.15.25-.18.3-.36.27-.37Z" fill="#eb996e"/><path d="m226.97,131.15h0c.03-2.45-3.04-4.06-5.43-4.61-2.39-.56-4.92.17-7.07,1.35-1.26.69-2.53,1.67-2.81,3.08-.28,1.41,1.07,3.08,2.42,2.58-2.57.88-3.88,4.32-2.54,6.69,1.34,2.37,4.96,3.02,7.04,1.26-.67,2.25-2.14,4.25-4.08,5.56,4.03.57,8.31-1.15,10.83-4.35,2.51-3.21,3.16-7.78,1.63-11.55Z" fill="#263238"/><path d="m221.52,143.62c-.06,0-.27-.88-.29-2.35-.03-1.47.19-3.52.9-5.66.72-2.14,1.79-3.9,2.7-5.05.91-1.16,1.62-1.74,1.66-1.7.14.1-2.49,2.71-3.87,6.91-1.44,4.19-.93,7.85-1.1,7.84Z" fill="#ff725e"/><path d="m256.35,122.72c.72,3.19,5.57,7.28,7.7,9.77,4.06,4.74,4.86,6.32,4.82,16.92,1.92-3.66,3.39-7.25,3.24-11.38-.15-4.13-1.67-8.27-4.54-11.24-2.87-2.97-7.14-4.66-11.23-4.07" fill="#263238"/><path d="m289.6,209.95s-8.45-14.09-10.79-16.94c-2.2-2.67-5.03-4.25-6.92-5.08-1.05-.46-2.16-.78-3.29-.97l-12.15-2.69s-.02,8.29-8.71,8.81c-8.69.51-16.01-11.59-16.01-11.59,0,0-14.04,2.17-17.4,3.9-3.36,1.73-8.64,3.92-11.54,18.47l-2.04,14.23,24.21,2.24,2.32,35.97,12.01,8.36s33.28,8.65,35.41,9.23c2.13.57,2.83-53.56,2.83-53.56,0,0,8.55-5.53,12.09-10.37Z" fill="#ffbd29"/><path d="m273.66,203.9s.2.36.47,1.04c.28.68.63,1.68,1.02,2.93.79,2.5,1.65,6.03,2.14,10,.48,3.97.49,7.61.33,10.22-.08,1.31-.18,2.36-.29,3.09-.1.73-.17,1.12-.2,1.12-.03,0-.03-.41.02-1.14.05-.73.1-1.78.13-3.08.07-2.6,0-6.2-.47-10.15-.49-3.94-1.29-7.45-1.99-9.96-.35-1.25-.65-2.27-.87-2.96-.22-.7-.32-1.09-.29-1.1Z" fill="#263238"/><path d="m272.63,262.83l-45.58-9.92-2.11-32.58-20.27-1.87s.75,22.27,1.53,28.89c1.12,9.52,6.75,22.52,10.04,25.11,3.29,2.6,58.43,1.43,58.43,1.43l-2.05-11.06Z" fill="#ffbe9d"/><path d="m298.5,268.73c-.32.64-.99,1.05-1.7.99-.14-.01-.29-.04-.44-.09-1.01-.32-.91-2.38-.91-2.38l-4.83-.79s-6.28,4.05-8.52,6.74c-2.23,2.68-7.94.51-7.94.51l-1.98-10.3,8.89-8.04s-.55.48.07-1.03c.61-1.5,3.41-.94,3.41-.94.43-.74,2.26-1.01,2.26-1.01l7.8.9c1.61.19,3.04,1.09,3.91,2.46l3.3,5.22s1.74,3.76,1.46,4.63c-.42,1.32-1.82,1.03-1.82,1.03,0,0-.38,2.47-1.03,2.56s-1.93-.46-1.93-.46h0Z" fill="#ffbe9d"/><path d="m281.9,261.34c0,.08,1.05-.01,2.71.06,1.66.08,3.96.37,6.36,1.19,1.2.4,2.31.89,3.28,1.4.94.53,1.93.97,2.23,1.65.15.34.08.68-.09.93-.16.25-.39.42-.59.5-.41.17-.67.05-.68.1-.02.01.24.21.75.08.24-.07.53-.23.75-.52.23-.28.37-.77.18-1.22-.17-.45-.56-.81-.97-1.1-.42-.28-.87-.56-1.37-.83-.98-.54-2.11-1.06-3.34-1.47-2.46-.84-4.83-1.08-6.52-1.07-1.7.02-2.73.24-2.72.29Z" fill="#eb996e"/><path d="m281.36,266.31c0,.15,3.18.02,7.08.24,3.9.21,7.04.71,7.06.56.01-.06-.76-.27-2.03-.49-1.27-.22-3.04-.45-5.01-.56-1.97-.11-3.75-.09-5.04,0-1.29.08-2.08.19-2.07.26Z" fill="#eb996e"/><path d="m298.46,268.53s.06-.29.1-.83c.03-.54.07-1.32,0-2.28-.03-.48-.08-1.01-.22-1.58-.12-.57-.4-1.17-.77-1.7-.7-1.06-1.68-2.17-2.92-2.99-1.24-.82-2.48-1.51-3.73-1.89-1.24-.38-2.41-.47-3.37-.51-.96-.03-1.74-.01-2.28,0-.54.02-.83.05-.83.08,0,.08,1.19.12,3.09.26.95.09,2.07.22,3.25.6,1.17.38,2.39,1.07,3.58,1.86,1.2.8,2.11,1.81,2.83,2.84.75.98.89,2.11,1.01,3.05.19,1.89.14,3.09.25,3.08Z" fill="#eb996e"/><path d="m287.19,254.39c0,.07,1.17.1,3.03.32,1.79.27,4.67.41,6.3,2.88,1.77,2.25,3.28,4.37,3.94,6.12.7,1.73.64,2.93.74,2.92.03,0,.07-.29.05-.83-.02-.53-.14-1.31-.45-2.21-.6-1.84-2.1-4.04-3.88-6.31-.45-.57-.95-1.11-1.52-1.53-.57-.43-1.23-.69-1.83-.86-1.23-.35-2.36-.45-3.31-.52-1.89-.13-3.06-.03-3.06.03Z" fill="#eb996e"/><path d="m283.81,271.54s.17-.11.46-.35c.33-.27.77-.62,1.31-1.05,1.15-.89,2.86-2.16,5.13-3.53l-.11.02c1.44.25,3.07.52,4.82.82l-.17-.2c-.01.39.01.78.09,1.18.08.39.21.82.55,1.16.18.17.43.27.64.29.21.05.45.08.68.04.46-.07.89-.31,1.2-.66.08-.09.15-.19.21-.29l.04-.08.02-.04v-.02s.01,0,.01,0c.06-.02-.54.2-.28.1h0s.01,0,.01,0l.15.06c.2.08.41.15.62.22.21.07.43.12.66.16.12.02.23.04.36.04.12,0,.26,0,.45-.09.27-.19.37-.42.47-.64.1-.22.18-.44.24-.66.13-.45.23-.9.31-1.37l-.28.2c.63.11,1.36-.04,1.8-.61.2-.27.36-.6.33-.97-.02-.34-.09-.63-.17-.93-.34-1.18-.82-2.32-1.33-3.47h0s0-.03,0-.03c-.56-.89-1.16-1.83-1.76-2.79-.37-.59-.75-1.18-1.12-1.76-.37-.57-.7-1.2-1.22-1.71-.5-.51-1.1-.9-1.75-1.16-.64-.28-1.36-.35-1.99-.41-2.58-.29-5.05-.57-7.35-.83h-.03s-.03,0-.03,0c-.45.08-.87.18-1.29.34-.4.16-.83.35-1.12.78l.27-.08c-.83-.34-1.78-.34-2.5.14-.73.48-1.06,1.25-1.24,1.97l.06-.1c-2.55,2.3-4.64,4.17-6.13,5.51-.69.63-1.24,1.14-1.65,1.52-.37.35-.56.54-.55.56.01.01.23-.15.62-.48.43-.36,1-.84,1.72-1.45,1.52-1.31,3.64-3.14,6.24-5.39l.04-.04.02-.07c.16-.64.49-1.34,1.09-1.71.58-.39,1.42-.38,2.11-.09l.17.07.1-.16c.17-.26.54-.46.91-.59.38-.14.79-.24,1.2-.31h-.06c2.3.27,4.76.56,7.35.87.66.07,1.27.13,1.86.39.59.24,1.13.6,1.58,1.06.46.44.77,1.04,1.16,1.63.37.58.74,1.17,1.11,1.77.6.95,1.2,1.9,1.76,2.78l-.02-.03c.51,1.13.99,2.27,1.31,3.39.08.28.15.57.16.82.03.22-.09.46-.23.66-.28.4-.85.52-1.32.44l-.24-.04-.04.23c-.07.44-.17.89-.29,1.31-.12.4-.29.88-.5,1.04-.01,0-.09.03-.2.02-.09,0-.2-.01-.3-.03-.2-.03-.4-.09-.61-.15-.2-.06-.4-.13-.59-.2l-.14-.06h0s0,0,0,0c.25-.09-.35.13-.29.1h0s0,.02,0,.02l-.02.03-.03.06c-.05.08-.1.16-.16.23-.24.28-.58.47-.93.53-.18.03-.35.01-.53-.03-.19-.03-.32-.08-.44-.18-.46-.48-.53-1.33-.53-2.02v-.18s-.17-.03-.17-.03c-1.76-.28-3.39-.53-4.84-.76h-.06s-.05.02-.05.02c-2.26,1.42-3.94,2.73-5.07,3.67-.56.47-.98.85-1.25,1.12-.27.27-.41.41-.4.42Z" fill="#eb996e"/><path d="m348.42,238.78l-60.04.49c-1.95,0-3.81.94-4.1,2.86l-6.56,43.76h-30.92c-1,0-1.8.81-1.8,1.8s.81,1.8,1.8,1.8h98.76l6.75-46.18c.36-2.38-1.48-4.53-3.89-4.53Z" fill="#e0e0e0"/><path d="m348.42,238.78s.33-.04.95.09c.6.14,1.55.51,2.29,1.52.37.49.65,1.15.74,1.92.1.77-.12,1.59-.22,2.47-.25,1.77-.54,3.8-.87,6.09-1.32,9.17-3.23,22.39-5.57,38.65l-.02.16h-.16c-25.56.02-59.14.04-95.82.06h-2.58c-.4.02-.95,0-1.36-.26-.43-.23-.76-.63-.92-1.08-.36-.92.07-2.04.93-2.49.41-.25.96-.27,1.35-.25h1.27c3.38,0,6.73,0,10.04,0,6.61,0,13.05,0,19.25,0l-.23.2c2.36-15.67,4.56-30.29,6.54-43.4.07-.83.44-1.73,1.11-2.29.65-.58,1.48-.89,2.3-1.01.84-.13,1.63-.06,2.42-.09.79,0,1.58-.01,2.36-.02,3.12-.02,6.13-.04,9.04-.06,5.81-.04,11.18-.07,16.06-.1,9.75-.05,17.52-.09,22.87-.12,2.66,0,4.71,0,6.12-.01.69,0,1.21,0,1.58,0,.35,0,.54.02.54.02,0,0-.18.02-.54.03-.37,0-.89.02-1.58.03-1.41.02-3.46.05-6.12.09-5.35.06-13.12.15-22.87.25-4.88.05-10.25.1-16.06.16-2.91.03-5.92.06-9.04.09-.78,0-1.57.01-2.36.02-.79.03-1.6-.03-2.36.09-.76.12-1.52.41-2.09.92-.59.51-.9,1.23-.98,2.05-1.96,13.12-4.14,27.74-6.48,43.41l-.03.2h-.2c-6.2,0-12.64,0-19.25,0-3.3,0-6.65,0-10.04,0h-1.27c-.45-.01-.78,0-1.12.19-.66.35-.99,1.2-.71,1.9.13.35.38.65.7.83.34.19.67.21,1.13.2.86,0,1.72,0,2.58,0,36.67.02,70.26.04,95.82.06l-.18.16c2.41-16.24,4.37-29.46,5.73-38.63.34-2.29.65-4.32.91-6.09.11-.88.33-1.7.24-2.43-.08-.74-.34-1.38-.7-1.87-.71-.99-1.63-1.38-2.22-1.53-.61-.15-.94-.12-.93-.14Z" fill="#263238"/><path d="m312.1,263.58c0,2.08,1.68,3.76,3.76,3.76s3.76-1.68,3.76-3.76-1.68-3.76-3.76-3.76-3.76,1.68-3.76,3.76Z" fill="#fff"/><path d="m280.16,289.09c.09.01,2-11.13,4.27-24.88,2.27-13.76,4.05-24.92,3.96-24.94-.08-.01-2,11.13-4.27,24.89-2.27,13.76-4.05,24.92-3.96,24.93Z" fill="#263238"/></svg>