<?xml version="1.0" encoding="UTF-8"?><svg id="OBJECTS" xmlns="http://www.w3.org/2000/svg" viewBox="0 0 500 500"><path d="m334.26,286.67h-111.77c-2.51,0-4.55-2.04-4.55-4.55v-67.64c0-2.51,2.04-4.55,4.55-4.55h111.77c2.51,0,4.55,2.04,4.55,4.55v67.64c0,2.51-2.04,4.55-4.55,4.55Zm-111.77-76.06c-2.13,0-3.87,1.74-3.87,3.87v67.64c0,2.13,1.74,3.87,3.87,3.87h111.77c2.13,0,3.87-1.74,3.87-3.87v-67.64c0-2.13-1.74-3.87-3.87-3.87h-111.77Z" fill="#25292b"/><path d="m222.83,210.27h111.08c2.51,0,4.55,2.04,4.55,4.55v4.18h-120.19v-4.18c0-2.51,2.04-4.55,4.55-4.55Z" fill="#25292b"/><rect x="225.9" y="221.82" width="17.61" height="17.61" transform="translate(469.41 461.24) rotate(-180)" fill="#f2e9da"/><rect x="225.9" y="243.08" width="17.61" height="17.61" transform="translate(469.41 503.76) rotate(-180)" fill="#f2e9da"/><rect x="225.9" y="263.72" width="17.61" height="17.61" transform="translate(469.41 545.05) rotate(-180)" fill="#f2e9da"/><polygon points="233 236.41 226.71 230.12 229.91 226.91 233 230 239.5 223.5 242.71 226.71 233 236.41" fill="#ffbd29"/><polygon points="233 258.34 226.71 252.04 229.91 248.84 233 251.93 239.5 245.43 242.71 248.63 233 258.34" fill="#ffbd29"/><polygon points="233 278.41 226.71 272.12 229.91 268.91 233 272 239.5 265.5 242.71 268.71 233 278.41" fill="#ffbd29"/><rect x="246.46" y="222.93" width="84.49" height="3.48" transform="translate(577.41 449.34) rotate(-180)" fill="#f2e9da"/><rect x="246.46" y="229.53" width="84.49" height="3.48" transform="translate(577.41 462.55) rotate(-180)" fill="#f2e9da"/><rect x="246.46" y="236.01" width="38.02" height="3.48" transform="translate(530.94 475.5) rotate(-180)" fill="#f2e9da"/><rect x="246.46" y="243.6" width="84.49" height="3.48" transform="translate(577.41 490.69) rotate(-180)" fill="#f2e9da"/><rect x="246.46" y="250.2" width="84.49" height="3.48" transform="translate(577.41 503.89) rotate(-180)" fill="#f2e9da"/><rect x="246.46" y="256.68" width="38.02" height="3.48" transform="translate(530.94 516.84) rotate(-180)" fill="#f2e9da"/><rect x="246.46" y="264.64" width="84.49" height="3.48" transform="translate(577.41 532.76) rotate(-180)" fill="#f2e9da"/><rect x="246.46" y="271.24" width="84.49" height="3.48" transform="translate(577.41 545.96) rotate(-180)" fill="#f2e9da"/><rect x="246.46" y="277.71" width="38.02" height="3.48" transform="translate(530.94 558.91) rotate(-180)" fill="#f2e9da"/><path d="m437.15,246.52l-6.06,18.12c-8.29,24.78-35.68,31.47-54.46,13.3l-13.72-13.29c-22.91-22.18-16.01-63.17,11.78-69.95l19.78-4.83c27.78-6.78,52.79,26.41,42.68,56.66Z" fill="#f2e9da"/><ellipse cx="386.32" cy="201.08" rx="26.9" ry="10.55" transform="translate(-36.67 97.37) rotate(-13.72)" fill="#25292b"/><path d="m425.12,174c0,20.12-19.74,26.76-44.1,26.76s-44.1-6.64-44.1-26.76,19.74-39,44.1-39,44.1,18.88,44.1,39Z" fill="#f2e9da"/><path d="m362.16,185.89s-19.59-.24-25.21-10.79c-.02-.36-.03-.73-.03-1.1,0-10.01,4.9-19.72,12.82-26.95h49.31s17.37,38.84-36.9,38.84Z" fill="#ffbd29"/><ellipse cx="349.73" cy="161.29" rx="6.53" ry="7.42" fill="#f2e9da"/><ellipse cx="372.61" cy="161.29" rx="6.53" ry="7.42" fill="#f2e9da"/><path d="m358.91,176.31c-6.08,0-6.18-5.48-6.18-5.54,0-.17.13-.3.3-.3h0c.16,0,.3.13.3.3,0,.2.1,4.94,5.58,4.94s5.57-4.74,5.58-4.94c0-.16.14-.3.3-.3h0c.17,0,.3.14.3.3,0,.06-.1,5.54-6.18,5.54Z" fill="#25292b"/><path d="m409.92,194.54s-.1-.01-.14-.04c-.15-.08-.2-.26-.12-.41,4.28-7.95,6.09-17.26,5.1-26.23-.99-8.97-4.79-17.67-10.69-24.49-.11-.13-.09-.32.03-.42.12-.11.31-.1.42.03,5.98,6.92,9.83,15.73,10.83,24.82,1,9.09-.83,18.53-5.17,26.59-.05.1-.16.16-.26.16Z" fill="#25292b"/><path d="m382.57,139.69c-.06,0-.11-.02-.17-.05-.14-.09-.18-.28-.09-.42,4.56-6.92,5.81-15.78,3.32-23.69-.05-.16.04-.33.2-.38.16-.05.33.04.38.2,2.54,8.08,1.27,17.13-3.4,24.2-.06.09-.15.13-.25.13Z" fill="#25292b"/><circle cx="385.9" cy="113.58" r="8.39" fill="#ffbd29"/><ellipse cx="418.02" cy="225.68" rx="12.77" ry="16.19" fill="#ffbd29"/><path d="m374.47,250.44c-10.97,0-21.94-2.55-31.75-7.49-3.81-1.91-5.34-6.55-3.43-10.36s6.55-5.34,10.36-3.43c10.36,5.21,22.37,7.02,33.81,5.1,11.44-1.92,22.19-7.55,30.29-15.86,2.97-3.05,7.85-3.12,10.91-.14,3.05,2.97,3.11,7.86.14,10.91-10.36,10.64-24.14,17.85-38.78,20.31-3.81.64-7.67.96-11.54.96Z" fill="#25292b"/><path d="m263.33,193.8c1.8-.29,3.66-.31,5.55-.03,4.79.72,9.02,3.26,11.9,7.15,2.88,3.9,4.07,8.68,3.36,13.47l-.12.81c-.33,2.22-2.4,3.75-4.61,3.41-2.22-.33-3.74-2.4-3.41-4.61l.12-.81c.4-2.65-.26-5.29-1.86-7.45s-3.93-3.56-6.58-3.95c-5.47-.82-10.58,2.97-11.4,8.43l-.12.81c-.33,2.22-2.4,3.74-4.61,3.41-2.22-.33-3.74-2.4-3.41-4.61l.12-.81c1.2-8,7.48-14.01,15.07-15.23Z" fill="#ffbd29"/><path d="m345.99,228.46c-.06,1.68-.37,3.38-.97,5.05-1.51,4.23-4.58,7.61-8.63,9.53-4.06,1.92-8.62,2.15-12.85.64l-.71-.25c-1.95-.7-2.97-2.85-2.27-4.8.7-1.95,2.85-2.97,4.8-2.27l.71.25c2.34.83,4.86.71,7.1-.35s3.94-2.93,4.77-5.27c1.72-4.82-.8-10.15-5.62-11.87l-.71-.25c-1.95-.7-2.97-2.85-2.27-4.8.7-1.95,2.85-2.97,4.8-2.27l.71.25c7.06,2.52,11.39,9.31,11.14,16.42Z" fill="#ffbd29"/><rect x="225.26" y="312.54" width="53.19" height="53.19" fill="#ffbd29"/><path d="m222.83,292.56h168.24c2.51,0,4.55,2.04,4.55,4.55v8.33h-177.35v-8.33c0-2.51,2.04-4.55,4.55-4.55Z" fill="#ffbd29"/><path d="m391.41,405.29h-168.93c-2.6,0-4.71-2.11-4.71-4.71v-103.81c0-2.6,2.11-4.71,4.71-4.71h168.93c2.6,0,4.71,2.11,4.71,4.71v103.81c0,2.6-2.11,4.71-4.71,4.71Zm-168.93-112.23c-2.04,0-3.71,1.66-3.71,3.71v103.81c0,2.04,1.66,3.71,3.71,3.71h168.93c2.04,0,3.71-1.66,3.71-3.71v-103.81c0-2.04-1.66-3.71-3.71-3.71h-168.93Z" fill="#25292b"/><path d="m389.15,298.95c0,.57-.23,1.1-.61,1.48s-.91.61-1.48.61h-10.15c-1.15,0-2.09-.93-2.09-2.09,0-.57.24-1.1.61-1.48.39-.38.91-.61,1.48-.61h10.15c1.16,0,2.09.93,2.09,2.09Z" fill="#f2e9da"/><path d="m372.27,298.95c0,.57-.23,1.1-.62,1.48-.37.38-.9.61-1.47.61h-10.15c-1.16,0-2.09-.93-2.09-2.09,0-.57.23-1.1.61-1.48.38-.38.9-.61,1.48-.61h10.15c1.15,0,2.09.93,2.09,2.09Z" fill="#25292b"/><path d="m355.11,298.95c0,.57-.23,1.1-.62,1.48-.37.38-.9.61-1.47.61h-10.15c-1.16,0-2.09-.93-2.09-2.09,0-.57.23-1.1.61-1.48.38-.38.9-.61,1.48-.61h10.15c1.15,0,2.09.93,2.09,2.09Z" fill="#ffa727"/><polygon points="245.41 358.87 227.88 341.34 236.26 332.96 245.41 342.12 268.12 319.4 276.5 327.78 245.41 358.87" fill="#f2e9da"/><rect x="225.26" y="373" width="162.18" height="3.07" rx="1.3" ry="1.3" fill="#f2e9da"/><rect x="225.43" y="383.86" width="162.18" height="3.07" rx="1.3" ry="1.3" fill="#f2e9da"/><rect x="225.34" y="394.07" width="113.87" height="3.07" rx="1.3" ry="1.3" fill="#f2e9da"/><path d="m351.63,354.9c-5.48,0-9.94-4.46-9.94-9.93v-21.23c0-4.43-3.6-8.04-8.04-8.04s-8.04,3.6-8.04,8.04v17.38c0,4.82-3.92,8.75-8.75,8.75h-.31c-4.82,0-8.75-3.92-8.75-8.75v-19.22c0-4-3.26-7.26-7.26-7.26s-7.26,3.26-7.26,7.26v36c0,.41-.33.74-.74.74s-.74-.33-.74-.74v-36c0-4.82,3.92-8.75,8.75-8.75s8.75,3.92,8.75,8.75v19.22c0,4,3.26,7.26,7.26,7.26h.31c4,0,7.26-3.26,7.26-7.26v-17.38c0-5.25,4.27-9.52,9.52-9.52s9.52,4.27,9.52,9.52v21.23c0,4.66,3.79,8.45,8.45,8.45s8.45-3.79,8.45-8.45v-5.11c0-5.33,4.33-9.66,9.66-9.66s9.66,4.33,9.66,9.66v20.89c0,.41-.33.74-.74.74s-.74-.33-.74-.74v-20.89c0-4.51-3.67-8.17-8.17-8.17s-8.17,3.67-8.17,8.17v5.11c0,5.48-4.46,9.93-9.93,9.93Z" fill="#f2e9da"/><circle cx="299.91" cy="313.76" r="4.56" fill="#ffbd29"/><circle cx="324.46" cy="331.99" r="4.56" fill="#ffbd29"/><circle cx="343.18" cy="322.25" r="4.56" fill="#ffbd29"/><circle cx="351.18" cy="353.58" r="4.56" fill="#ffbd29"/><circle cx="378.65" cy="359.31" r="4.56" fill="#ffbd29"/><circle cx="292.52" cy="358.19" r="4.56" fill="#ffbd29"/><path d="m222.38,154.33c-.26,0-.46-.21-.46-.46v-5.55c0-.26.21-.46.46-.46s.46.21.46.46v5.55c0,.26-.21.46-.46.46Zm91.65-5.46c-.25,0-.45-.2-.46-.45,0-.26.19-.47.45-.48,1.81-.06,3.53-.51,5.14-1.32.23-.12.51-.02.62.2.12.23.02.51-.2.62-1.72.87-3.58,1.35-5.52,1.42,0,0-.01,0-.02,0Zm-5.47-.67s-.1,0-.15-.02c-1.8-.61-3.49-1.63-4.88-2.95-.19-.18-.19-.47-.02-.65.18-.19.47-.19.65-.02,1.29,1.23,2.86,2.18,4.54,2.74.24.08.37.34.29.59-.07.19-.25.31-.44.31Zm15.06-4.18c-.1,0-.2-.03-.29-.1-.2-.16-.23-.45-.08-.65,1.12-1.42,1.9-3.02,2.32-4.77.06-.25.31-.4.56-.34.25.06.4.31.34.56-.45,1.88-1.29,3.6-2.5,5.13-.09.12-.23.18-.36.18Zm-101.24-.78c-.26,0-.46-.21-.46-.46v-5.55c0-.26.21-.46.46-.46s.46.21.46.46v5.55c0,.26-.21.46-.46.46Zm78.38-2.43c-.18,0-.36-.11-.43-.29-.62-1.56-.93-3.21-.93-4.9v-.7c0-.26.21-.46.46-.46s.46.21.46.46v.7c0,1.57.29,3.11.87,4.56.09.24-.02.51-.26.6-.06.02-.11.03-.17.03Zm-39.54-.95h-.43c-1.36,0-2.69-.2-3.97-.61-.24-.08-.38-.34-.3-.58.08-.24.33-.38.58-.3,1.19.37,2.44.56,3.7.56h.43c.4,0,.79-.02,1.17-.06.25-.02.48.16.5.42.02.25-.16.48-.42.5-.41.04-.84.06-1.26.06Zm6.45-1.74c-.16,0-.31-.08-.4-.23-.13-.22-.05-.5.17-.63,1.53-.9,2.88-2.14,3.9-3.6.15-.21.43-.26.64-.11.21.15.26.43.11.64-1.09,1.56-2.54,2.9-4.19,3.86-.07.04-.15.06-.23.06Zm-15.49-1.58c-.11,0-.22-.04-.31-.12-1.42-1.29-2.56-2.89-3.3-4.65-.1-.24.01-.51.25-.61.24-.1.51,0,.61.25.69,1.63,1.75,3.13,3.07,4.32.19.17.2.46.03.65-.09.1-.22.15-.34.15Zm74.19-2.97c-.26,0-.46-.21-.46-.46v-5.55c0-.26.21-.46.46-.46s.46.21.46.46v5.55c0,.26-.21.46-.46.46Zm-104-1.41c-.26,0-.46-.21-.46-.46v-5.55c0-.26.21-.46.46-.46s.46.21.46.46v5.55c0,.26-.21.46-.46.46Zm77.48-2.32c-.26,0-.46-.21-.46-.46v-5.55c0-.26.21-.46.46-.46s.46.21.46.46v5.55c0,.26-.21.46-.46.46Zm-26.03-.53s-.05,0-.08,0c-.25-.04-.42-.28-.37-.54.13-.71.19-1.44.19-2.17v-3.28c0-.26.21-.46.46-.46s.46.21.46.46v3.28c0,.78-.07,1.56-.2,2.33-.04.22-.23.38-.45.38Zm-25.84-2.66c-.26,0-.46-.21-.46-.46v-5.55c0-.26.21-.46.46-.46s.46.21.46.46v5.55c0,.26-.21.46-.46.46Zm78.39-4.17c-.26,0-.46-.21-.46-.46v-5.55c0-.26.21-.46.46-.46s.46.21.46.46v5.55c0,.26-.21.46-.46.46Zm-104-1.41c-.26,0-.46-.21-.46-.46v-5.55c0-.26.21-.46.46-.46s.46.21.46.46v5.55c0,.26-.21.46-.46.46Zm77.48-2.32c-.26,0-.46-.21-.46-.46v-5.55c0-.26.21-.46.46-.46s.46.21.46.46v5.55c0,.26-.21.46-.46.46Zm-25.83-.51c-.26,0-.46-.21-.46-.46v-5.55c0-.26.21-.46.46-.46s.46.21.46.46v5.55c0,.26-.21.46-.46.46Zm-26.04-2.68c-.26,0-.46-.21-.46-.46v-5.55c0-.26.21-.46.46-.46s.46.21.46.46v5.55c0,.26-.21.46-.46.46Zm78.39-4.17c-.26,0-.46-.21-.46-.46v-5.55c0-.26.21-.46.46-.46s.46.21.46.46v5.55c0,.26-.21.46-.46.46Zm-104-1.41c-.26,0-.46-.21-.46-.46v-5.55c0-.26.21-.46.46-.46s.46.21.46.46v5.55c0,.26-.21.46-.46.46Zm77.48-2.32c-.26,0-.46-.21-.46-.46v-4.98c0-.18,0-.36-.01-.54-.01-.26.19-.47.44-.48.26,0,.47.19.48.44,0,.19.01.39.01.58v4.98c0,.26-.21.46-.46.46Zm-25.83-.51c-.26,0-.46-.21-.46-.46v-4.47c0-.38.02-.75.05-1.12.02-.25.25-.44.5-.42.25.02.44.24.42.5-.03.34-.04.69-.04,1.04v4.47c0,.26-.21.46-.46.46Zm-26.04-2.68c-.26,0-.46-.21-.46-.46v-5.55c0-.26.21-.46.46-.46s.46.21.46.46v5.55c0,.26-.21.46-.46.46Zm78.39-4.17c-.26,0-.46-.21-.46-.46v-5.55c0-.26.21-.46.46-.46s.46.21.46.46v5.55c0,.26-.21.46-.46.46Zm-104-1.41c-.26,0-.46-.21-.46-.46v-5.55c0-.26.21-.46.46-.46s.46.21.46.46v5.55c0,.26-.21.46-.46.46Zm159.11-.12c-.15,0-.3-.08-.39-.21-.93-1.47-2.44-2.52-4.14-2.88-.25-.05-.41-.3-.36-.55.05-.25.3-.41.55-.36,1.94.41,3.66,1.61,4.73,3.29.14.22.07.5-.14.64-.08.05-.16.07-.25.07Zm-83.05-1.96c-.17,0-.33-.09-.41-.25-.82-1.57-1.99-2.98-3.39-4.08-.2-.16-.24-.45-.08-.65.16-.2.45-.24.65-.08,1.51,1.17,2.77,2.69,3.64,4.38.12.23.03.51-.2.62-.07.04-.14.05-.21.05Zm-22.73-.45c-.08,0-.16-.02-.23-.06-.22-.13-.3-.41-.17-.63.94-1.66,2.26-3.12,3.82-4.23.21-.15.5-.1.64.11.15.21.1.5-.11.64-1.45,1.04-2.67,2.4-3.55,3.94-.09.15-.24.23-.4.23Zm95.82-.82h-5.55c-.26,0-.46-.21-.46-.46s.21-.46.46-.46h5.55c.26,0,.46.21.46.46s-.21.46-.46.46Zm-10.94-1.09c-.06,0-.13-.01-.19-.04-1.74-.79-3.31-1.99-4.54-3.46-.16-.2-.14-.49.06-.65.2-.16.49-.14.65.06,1.14,1.37,2.59,2.48,4.21,3.21.23.11.34.38.23.61-.08.17-.25.27-.42.27Zm-112.6-1.06c-.26,0-.46-.21-.46-.46v-2.08c0-1.12-.15-2.23-.45-3.3-.07-.25.08-.5.32-.57.24-.06.5.08.57.32.32,1.15.48,2.34.48,3.54v2.08c0,.26-.21.46-.46.46Zm41.96-3.18s-.07,0-.1-.01c-.91-.21-1.85-.32-2.79-.32h-.22c-.77,0-1.55.07-2.3.21-.25.05-.49-.12-.54-.37-.05-.25.12-.49.37-.54.81-.15,1.64-.23,2.47-.23h.22c1.01,0,2.02.11,3,.34.25.06.4.31.35.55-.05.21-.24.36-.45.36Zm36.43-.99c-.26,0-.46-.21-.46-.46v-5.55c0-.26.21-.46.46-.46s.46.21.46.46v5.55c0,.26-.21.46-.46.46Zm-103.53-1.37s-.08,0-.13-.02c-.25-.07-.39-.32-.32-.57.52-1.86,1.42-3.55,2.68-5.03.17-.19.46-.22.65-.05.19.17.22.46.05.65-1.17,1.37-2.01,2.95-2.5,4.68-.06.2-.24.34-.44.34Zm130.88-1.64c-.21,0-.4-.14-.45-.35-.24-.99-.37-2.01-.37-3.04,0-.83-.09-1.66-.26-2.47-.05-.25.11-.5.36-.55.25-.05.49.11.55.36.18.87.28,1.76.28,2.66,0,.96.11,1.91.34,2.82.06.25-.09.5-.34.56-.04,0-.07.01-.11.01Zm-108.78-3.19c-.13,0-.26-.06-.35-.16-1.15-1.36-2.61-2.47-4.22-3.22-.23-.11-.33-.38-.22-.61.11-.23.38-.33.61-.22,1.73.8,3.29,2,4.53,3.46.17.19.14.49-.05.65-.09.07-.19.11-.3.11Zm-15.12-3.35c-.18,0-.34-.1-.42-.27-.11-.23,0-.51.23-.61,1.75-.81,3.61-1.21,5.55-1.21.26,0,.47.21.47.46s-.2.46-.45.46c-1.82,0-3.56.38-5.18,1.13-.06.03-.13.04-.19.04Zm97.62-1.4c-.06,0-.13-.01-.19-.04-.23-.1-.34-.38-.23-.61.78-1.74,1.97-3.32,3.44-4.55.19-.16.49-.14.65.06.16.2.14.49-.06.65-1.36,1.15-2.46,2.61-3.19,4.22-.08.17-.25.27-.42.27Zm23.34-2.54c-.14,0-.27-.06-.36-.18-1.1-1.4-2.52-2.56-4.11-3.34-.23-.11-.32-.39-.21-.62.11-.23.39-.32.62-.21,1.72.84,3.25,2.09,4.43,3.6.16.2.12.49-.08.65-.08.07-.19.1-.28.1Zm-15.14-4.35c-.21,0-.39-.14-.45-.35-.06-.25.09-.5.34-.56,1.01-.25,2.05-.38,3.1-.38h2.48c.26,0,.49.21.49.46s-.18.46-.44.46h-2.53c-.97,0-1.94.12-2.88.35-.04,0-.08.01-.11.01Z" fill="#25292b"/><circle cx="286.98" cy="89.39" r="15.49" fill="#ffbd29"/><path d="m281.3,96.12c-.19,0-.37-.06-.53-.19l-7.41-5.92c-.2-.16-.32-.41-.32-.67s.12-.5.32-.67l7.32-5.84c.37-.29.9-.23,1.2.13s.23.9-.13,1.2l-6.48,5.18,6.58,5.25c.37.29.43.83.13,1.2-.17.21-.42.32-.67.32Z" fill="#f2e9da"/><path d="m292.65,96.12c-.25,0-.5-.11-.67-.32-.29-.37-.23-.91.13-1.2l6.58-5.25-6.48-5.18c-.37-.29-.43-.83-.13-1.2.29-.37.83-.43,1.2-.13l7.32,5.84c.2.16.32.41.32.67s-.12.5-.32.67l-7.41,5.92c-.16.13-.35.19-.53.19Z" fill="#f2e9da"/><path d="m285.31,97.69c-.12.02-.24,0-.37-.03-.45-.14-.7-.62-.56-1.07l4.59-14.91c.14-.45.62-.7,1.07-.56.45.14.7.62.56,1.07l-4.59,14.91c-.1.33-.38.55-.7.59Z" fill="#f2e9da"/><path d="m290.47,166.96h2.39c0-2-.46-4.02-1.33-5.83l-2.16,1.04c-.72-1.5-1.78-2.81-3.07-3.84l1.49-1.87c-.79-.63-1.64-1.17-2.55-1.61-.91-.43-1.86-.77-2.84-.99l-.53,2.33c-.79-.18-1.61-.27-2.46-.27s-1.67.09-2.46.28l-.53-2.33c-.98.22-1.94.56-2.84.99-.9.44-1.76.98-2.55,1.61l1.49,1.87c-1.29,1.03-2.34,2.34-3.07,3.84l-2.16-1.04c-.87,1.81-1.33,3.83-1.33,5.83h2.4c0,1.72.39,3.34,1.09,4.79l-2.16,1.04c.88,1.81,2.16,3.42,3.73,4.67l1.49-1.87c1.28,1.02,2.78,1.76,4.43,2.13l-.53,2.33c1.96.45,4.01.45,5.97,0l-.53-2.33c1.65-.37,3.15-1.12,4.43-2.14l1.49,1.87c1.57-1.25,2.85-2.86,3.73-4.67l-2.16-1.04c.7-1.45,1.09-3.08,1.09-4.79Zm-11.04,7.57c-4.09,0-7.4-3.32-7.4-7.41s3.32-7.4,7.4-7.4,7.41,3.32,7.41,7.4-3.32,7.41-7.41,7.41Z" fill="#ffbd29"/><path d="m325.42,187.85h4.65c0-1.08-.09-2.16-.25-3.24-.17-1.07-.43-2.13-.76-3.17-.33-1.04-.76-2.04-1.25-3.01-.49-.97-1.06-1.9-1.7-2.77l-3.76,2.73c-1.97-2.71-4.77-4.78-8.03-5.84l1.43-4.42c-4.14-1.35-8.66-1.35-12.8,0l1.44,4.42c-3.26,1.06-6.06,3.13-8.04,5.84l-3.76-2.74c-.64.87-1.21,1.81-1.7,2.77-.49.97-.92,1.97-1.25,3.01-.33,1.03-.59,2.09-.76,3.17-.16,1.07-.25,2.16-.25,3.24h4.65c0,3.53,1.14,6.8,3.07,9.45l-3.76,2.73c2.54,3.52,6.22,6.19,10.36,7.53l1.44-4.42c1.56.51,3.23.78,4.97.78s3.4-.28,4.97-.78l1.43,4.42c4.14-1.34,7.82-4.01,10.36-7.53l-3.76-2.73c1.93-2.65,3.07-5.92,3.07-9.45Zm-16.07,8.68c-5.08,0-9.19-4.11-9.19-9.19s4.11-9.19,9.19-9.19,9.18,4.11,9.18,9.19-4.11,9.19-9.18,9.19Z" fill="#ffbd29"/><circle cx="299.57" cy="159.36" r="5.5" fill="#ffbd29"/><path d="m242.71,438.52c0,6.4-40.77,11.58-91.07,11.58s-91.07-5.19-91.07-11.58,40.77-11.58,91.07-11.58,91.07,5.19,91.07,11.58Z" fill="#e0e0e0"/><path d="m185.29,238.96s6.45,152.34,5.87,177.4h-33.15l-16.98-176.12,44.26-1.28Z" fill="#647bf4"/><polygon points="108.71 240.75 104.25 322.3 80.53 416.36 116.08 416.36 151.84 321.92 167.04 239.82 108.71 240.75" fill="#647bf4"/><path d="m150.01,327.21l-.95-.19c5.42-26.67,9.97-53.89,13.52-80.93l.05-.38,11.3-.97.08.96-10.53.91c-3.55,26.93-8.09,54.05-13.48,80.61Z" fill="#2a409b"/><path d="m83.26,416.45h28.25s7.46,6.59,7.46,6.59c0,0,22.1-.62,22.1,15.54h-57.81v-22.13Z" fill="#1f2251"/><path d="m85.21,436.71h.1s54.37-.2,54.37-.2c.21,0,.38-.17.38-.39,0-.21-.17-.38-.38-.38h0l-54.47.2c-.21,0-.38.17-.38.39,0,.21.17.38.38.38Z" fill="#25292b"/><path d="m100.45,425.56c-1.98-.21-3.18-.99-3.4-2.2-.28-1.56,1.27-2.68,2.67-3.16,4.4-1.52,9.49-.58,13.11,2.31,1.02-3.31,2.82-6.35,5.23-8.83.76-.78,1.69-1.6,2.88-1.83,1.21-.23,2.71.38,3.02,1.68.29,1.23-.59,2.32-1.39,3.14-2.67,2.72-5.6,5.2-8.73,7.39-.11.08-.25.09-.37.04-.04.04-.09.06-.14.08-3.1,1.03-6.4,1.56-9.69,1.56-1.07,0-2.14-.06-3.21-.17Zm12.21-2.2c-3.43-2.92-8.4-3.91-12.68-2.43-.9.31-2.37,1.14-2.17,2.3.21,1.17,1.97,1.49,2.72,1.57,4.1.44,8.32,0,12.25-1.25-.06-.05-.1-.12-.13-.19Zm8.44-10.75c-.98.19-1.8.92-2.47,1.61-2.41,2.47-4.18,5.52-5.14,8.84.07.06.13.12.19.18,2.99-2.11,5.81-4.5,8.37-7.11.66-.67,1.39-1.56,1.19-2.42-.17-.73-.99-1.13-1.75-1.13-.13,0-.25.01-.38.03Z" fill="#25292b"/><path d="m160.58,416.22h28.25s7.46,6.59,7.46,6.59c0,0,22.1-.62,22.1,15.54h-57.81v-22.13Z" fill="#1f2251"/><path d="m162.53,436.48h.1s54.37-.2,54.37-.2c.21,0,.38-.17.38-.39,0-.21-.17-.38-.38-.38h0l-54.47.2c-.21,0-.38.17-.38.39,0,.21.17.38.38.38Z" fill="#25292b"/><path d="m177.78,425.33c-1.98-.21-3.18-.99-3.4-2.2-.28-1.56,1.27-2.68,2.67-3.16,4.4-1.52,9.49-.58,13.11,2.31,1.02-3.31,2.82-6.35,5.23-8.83.76-.78,1.69-1.6,2.88-1.83,1.21-.23,2.71.38,3.02,1.68.29,1.23-.59,2.32-1.39,3.14-2.67,2.72-5.6,5.2-8.73,7.39-.11.08-.25.09-.37.04-.04.04-.09.06-.14.08-3.1,1.03-6.4,1.56-9.69,1.56-1.07,0-2.14-.06-3.21-.17Zm12.21-2.2c-3.43-2.92-8.4-3.91-12.68-2.43-.9.31-2.37,1.14-2.17,2.3.21,1.17,1.97,1.49,2.72,1.57,4.1.44,8.32,0,12.25-1.25-.06-.05-.1-.12-.13-.19Zm8.44-10.75c-.98.19-1.8.92-2.47,1.61-2.41,2.47-4.18,5.52-5.14,8.84.07.06.13.12.19.18,2.99-2.11,5.81-4.5,8.37-7.11.66-.67,1.39-1.56,1.19-2.42-.17-.73-.99-1.13-1.75-1.13-.13,0-.25.01-.38.03Z" fill="#25292b"/><path d="m180.75,203.16l4.54,35.8-4.46,18.25-13.79-17.39-19.78,17.39-38.55-16.45.46-14.98c-11.31,2.31-21.78-6.59-21.33-18.12l4.73-55.23c.31-7.71,5.97-19.22,13.39-21.3l25.42-7.52,22.14,4.05,15.05,4.62c6.64,2.04,11.48,7.76,12.4,14.63l4.4,32.91,20.73,5.36.77,17.99h-26.12Z" fill="#ffbd29"/><path d="m116.08,197.19s-.03,0-.05,0c-.25-.03-.44-.25-.41-.51l3.77-36.66c.03-.25.25-.43.51-.41.25.03.44.25.41.51l-3.77,36.66c-.02.24-.23.41-.46.41Z" fill="#25292b"/><path d="m110.59,225.8c-.2,0-.38-.13-.44-.32-.08-.24.06-.5.3-.58l45.45-14.43-5.28-18.87-46.28,8.15c-.25.05-.49-.12-.54-.37-.04-.25.12-.49.37-.54l46.7-8.22c.24-.04.46.1.53.33l5.52,19.7c.07.24-.07.49-.31.57l-45.87,14.56s-.09.02-.14.02Z" fill="#25292b"/><path d="m174.32,183.66c-.23,0-.43-.17-.46-.41l-3.43-28.95c-.03-.25.15-.48.4-.51.25-.03.48.15.51.4l3.43,28.95c.03.25-.15.48-.4.51-.02,0-.04,0-.05,0Z" fill="#25292b"/><path d="m152.05,145.45c-.1,0-.2-.03-.28-.1l-8.23-6.3c-.8.02-4.64.34-5.42,5.07-.03.17-.15.31-.31.36-.16.06-.34.01-.47-.11-.09-.09-8.58-8.63-7.85-19.55.02-.25.24-.44.49-.43.25.02.45.24.43.49-.59,8.82,5.1,16.06,6.98,18.19,1.36-5.08,6.27-4.94,6.32-4.95.1,0,.19.04.26.09l8.35,6.39c.2.16.24.45.09.65-.09.12-.23.18-.37.18Z" fill="#25292b"/><path d="m154.28,145.45s-.04,0-.07,0c-.25-.04-.43-.27-.39-.52l.98-6.68c.02-.12.08-.23.18-.3.1-.07.22-.1.34-.09.1.02,1.97.31,3.19,1.26-.11-2.51-.75-7.91-4.15-10.18-.21-.14-.27-.43-.13-.64.14-.21.43-.27.64-.13,4.91,3.28,4.59,11.94,4.57,12.31,0,.22-.17.4-.39.44-.22.03-.43-.09-.5-.3-.35-.98-1.94-1.53-2.91-1.75l-.91,6.2c-.03.23-.23.39-.46.39Z" fill="#25292b"/><path d="m200.85,186.94l-13.19,1.62,3.66,2.86c1.34,1.04,1.58,2.99.54,4.33-.61.78-1.52,1.18-2.43,1.18-.09,0-.19,0-.29,0,.33.95.2,2.07-.47,2.93-.61.78-1.53,1.18-2.44,1.18-.32,0-.66-.06-.97-.16.38.98.24,2.12-.44,3-.61.78-1.52,1.18-2.44,1.18-.66,0-1.32-.2-1.89-.64l-2.77-2.16-.37.55c-6.42,8.01-14.46,4.76-14.46,4.76l-6.3,1.82-4.75-16.54,12.75-2.76,10.75-7.09c1.3-.86,2.84-1.32,4.4-1.32h21.11v5.27Z" fill="#ffbe9d"/><path d="m185.26,201.33c-.1,0-.21-.03-.29-.1l-5.41-4.42c-.2-.16-.23-.45-.07-.65.16-.2.45-.23.65-.07l5.41,4.42c.2.16.23.45.07.65-.09.11-.22.17-.36.17Z" fill="#25292b"/><path d="m189.14,197.38c-.1,0-.21-.04-.3-.11l-5.5-4.58c-.2-.16-.22-.45-.06-.65.16-.2.45-.22.65-.06l5.5,4.58c.2.16.22.45.06.65-.09.11-.22.17-.36.17Z" fill="#25292b"/><path d="m242.73,161.24l-27.33,48.36c-.71,1.26-2.04,2.03-3.49,2.03h-25.74c-3.07,0-4.99-3.31-3.49-5.98l27.33-48.35c.71-1.26,2.04-2.03,3.49-2.03h25.75c3.07,0,4.99,3.3,3.49,5.97Z" fill="#25292b"/><path d="m231.05,187.79c-.43.85-1.23,1.4-2.11,1.54.39.39.67.86.83,1.37.27.84.22,1.78-.21,2.63-.66,1.29-2.04,1.99-3.41,1.85.35.37.6.81.76,1.28.27.85.22,1.79-.21,2.63-.58,1.14-1.72,1.81-2.92,1.86.16.23.29.47.39.72.36.89.37,1.85-.06,2.7-.87,1.68-3.17,2.25-5.12,1.25l-4.34-2.07c-.98-.5-1.68-1.3-2.04-2.19-.36-.89-.36-1.86.06-2.7.53-1.04,1.61-1.65,2.81-1.72-.21-.3-.38-.63-.49-.97-.28-.84-.22-1.78.2-2.63.67-1.29,2.05-2,3.42-1.86-.35-.37-.61-.81-.76-1.28-.28-.84-.23-1.78.2-2.63.67-1.33,2.11-2.02,3.51-1.85-.07-.14-.13-.28-.18-.43-.23-.71-.19-1.52.18-2.23.73-1.43,2.51-2.01,3.94-1.27l4.27,2.05c.72.37,1.22,1,1.45,1.71.23.71.18,1.52-.18,2.23Z" fill="#f2e9da"/><path d="m223.78,201.42c-.07,0-.14-.01-.2-.05l-8.3-4.01c-.23-.11-.33-.39-.21-.62.11-.23.39-.32.62-.21l8.3,4.01c.23.11.33.39.21.62-.08.16-.24.26-.42.26Z" fill="#25292b"/><path d="m226.15,195.64c-.07,0-.14-.01-.2-.05l-7.55-3.69c-.23-.11-.32-.39-.21-.62.11-.23.39-.32.62-.21l7.55,3.69c.23.11.32.39.21.62-.08.16-.24.26-.42.26Z" fill="#25292b"/><path d="m228.94,189.8c-.07,0-.14-.01-.2-.05l-7.38-3.61c-.23-.11-.32-.39-.21-.62.11-.23.39-.32.62-.21l7.38,3.61c.23.11.32.39.21.62-.08.16-.24.26-.42.26Z" fill="#25292b"/><path d="m127.89,102.48c1.01,4.08,3.52,6.65,7.31,6.18l-4.25,15.6,21.25,18.42,2.06-19.44s2.66-.58,5.81-3.29c3.14-2.7,8.42-9.36,8.83-15.65l.82-12.41c-5.17-.03-11.85-1.46-16.96-2.78-4.5-1.17-7.79-2.25-7.79-2.25-.08.58-.26,1.17-.52,1.76-1.39,3.22-4.97,6.43-4.97,6.43v.06s-.02-.02-.03-.02c-.03-.03-.05-.05-.07-.08-1.21-1.32-2.81-2.22-4.52-2.48-.9-.14-1.84-.1-2.77.12-4.05,1.01-5.3,5.46-4.22,9.83Z" fill="#ffbe9d"/><ellipse cx="165.85" cy="102.1" rx="2.27" ry="2.05" transform="translate(53.02 260.84) rotate(-86.21)" fill="#25292b"/><ellipse cx="152.77" cy="99.32" rx="2.27" ry="2.05" transform="translate(10.24 212.84) rotate(-71.56)" fill="#25292b"/><path d="m164.5,96.7c1.59-.39,3.32,0,4.51,1.14.24.23.32.62.08.89-.22.24-.63.32-.89.08-.12-.11-.24-.22-.37-.32-.06-.05-.13-.09-.19-.14,0,0-.02,0-.02-.01-.03-.02-.07-.04-.11-.06-.14-.08-.29-.15-.44-.21-.07-.03-.15-.06-.23-.09-.01,0-.03,0-.04-.01-.04-.01-.09-.03-.13-.04-.16-.04-.32-.07-.48-.1-.08-.01-.16-.02-.24-.03-.04,0-.08,0-.12,0,0,0,0,0,0,0,0,0,0,0-.01,0-.16,0-.32,0-.49.02-.08,0-.16.02-.24.03-.04,0-.08.01-.12.02-.01,0-.02,0-.02,0,0,0-.01,0-.02,0-.32.08-.7-.02-.81-.37-.1-.29.03-.73.37-.81Z" fill="#25292b"/><path d="m156.33,95.8c-.24.28-.62.23-.89.03,0,0-.01,0-.02-.01,0,0,0,0-.02-.01-.03-.02-.07-.04-.1-.07-.07-.04-.14-.08-.21-.12-.14-.08-.29-.14-.44-.2,0,0,0,0-.01,0,0,0,0,0,0,0-.04-.01-.08-.03-.12-.04-.08-.02-.16-.05-.23-.06-.16-.04-.32-.07-.48-.09-.04,0-.09-.01-.13-.01-.01,0-.02,0-.04,0-.08,0-.16,0-.24,0-.16,0-.32.01-.49.03-.04,0-.08.01-.12.02,0,0-.02,0-.03,0-.08.02-.16.03-.23.05-.16.04-.31.09-.46.15-.33.13-.68-.11-.79-.41-.12-.33.1-.67.41-.79,1.54-.61,3.29-.31,4.61.65.28.21.23.65.03.89Z" fill="#25292b"/><path d="m151.62,113.8c-1.15-.51-1.91-1.27-2.26-2.25-.6-1.65.19-3.3.23-3.37.09-.19.32-.27.51-.19l7.12,3.09c.1.04.18.12.21.23.04.1.03.21-.02.31-.02.03-1.31,2.62-3.89,2.62-.57,0-1.21-.13-1.91-.44Zm-1.46-4.92c-.17.5-.39,1.47-.06,2.4.28.77.9,1.37,1.84,1.79,2.53,1.13,4.03-.64,4.55-1.44l-6.34-2.75Z" fill="#25292b"/><path d="m134.31,106.76c-.09,0-.17-.02-.25-.07-1.46-.89-2.25-2.75-1.88-4.42.35-1.57,1.69-2.84,3.26-3.15.25-.87.18-1.78-.19-2.48-.44-.83-1.35-1.35-2.18-1.25-.85.09-1.58.89-1.53,1.67.02.27-.19.5-.46.52-.27.03-.5-.19-.52-.46-.08-1.32,1.02-2.56,2.4-2.7,1.24-.13,2.52.6,3.15,1.76.55,1.03.61,2.32.16,3.55-.06.18-.22.3-.41.32-1.3.14-2.45,1.17-2.73,2.44-.29,1.27.32,2.69,1.43,3.37.23.14.3.44.16.67-.09.15-.25.23-.42.23Z" fill="#25292b"/><path d="m151.99,123.77c-.39,0-.75-.04-1.08-.13-2.29-.64-5.41-4.32-5.54-4.47-.17-.21-.15-.51.06-.69.21-.17.52-.15.69.06.03.04,3.05,3.6,5.05,4.16,1.64.46,5.04-.83,6.22-1.36.25-.11.54,0,.65.24.11.25,0,.53-.24.65-.16.07-3.42,1.54-5.81,1.54Z" fill="#25292b"/><path d="m152.19,105.38c-1,0-2.01-.19-2.99-.59-1.98-.8-3.53-2.33-4.36-4.29-.83-1.97-.85-4.14-.05-6.12s2.33-3.53,4.29-4.36c1.96-.83,4.14-.85,6.12-.05,4.08,1.66,6.06,6.32,4.4,10.41h0c-1.26,3.1-4.26,4.99-7.42,4.99Zm0-15.01c-.93,0-1.85.19-2.73.56-1.73.73-3.06,2.09-3.77,3.83-.7,1.74-.69,3.64.04,5.37.73,1.73,2.09,3.06,3.83,3.77,3.58,1.45,7.68-.28,9.14-3.87,1.45-3.58-.28-7.68-3.87-9.14-.85-.35-1.74-.52-2.64-.52Z" fill="#ffbd29"/><path d="m169.72,110.38c-1,0-2.01-.19-2.99-.59-4.08-1.66-6.06-6.33-4.4-10.41.8-1.98,2.33-3.53,4.29-4.36,1.96-.83,4.14-.85,6.12-.05,4.08,1.66,6.06,6.32,4.4,10.41h0c-1.26,3.1-4.26,4.99-7.42,4.99Zm0-15.01c-.93,0-1.85.19-2.73.56-1.73.73-3.06,2.09-3.77,3.83-1.45,3.58.28,7.68,3.87,9.14,3.58,1.45,7.68-.28,9.14-3.87,1.45-3.58-.28-7.68-3.87-9.14-.85-.35-1.74-.52-2.64-.52Z" fill="#ffbd29"/><rect x="140.46" y="87.86" width=".98" height="9.56" transform="translate(-10.03 167.83) rotate(-59.79)" fill="#ffbd29"/><rect x="160.23" y="99.18" width=".98" height="3.39" transform="translate(4.69 208.86) rotate(-66.8)" fill="#ffbd29"/><path d="m132.11,92.65c.93-.22,1.86-.26,2.77-.12,1.71.27,3.31,1.16,4.52,2.48l.09.03s3.58-3.21,4.97-6.43c.26-.59.44-1.19.52-1.76,0,0,3.29,1.08,7.79,2.25,5.11,1.32,11.79,2.75,16.96,2.78,3.28.03,5.96-.51,7.25-1.98,5.83-6.67,1.58-13.54-4.85-12.9-6.17.63-10.34.52-17.07-3.74-6.74-4.26-13.82-3.55-15.89,1.91,0,0-11.13.34-7.05,17.47Z" fill="#25292b"/><path d="m162.75,110.83c-.05,0-.1,0-.15-.02l-6.09-2.01c-.26-.08-.4-.36-.31-.62.08-.26.36-.39.62-.31l5.4,1.78-.79-10.18c-.02-.27.18-.5.45-.52.27-.02.5.18.52.45l.85,10.91c.01.16-.06.32-.19.42-.09.07-.19.1-.3.1Z" fill="#25292b"/></svg>